<svg xmlns="http://www.w3.org/2000/svg" xmlns:xlink="http://www.w3.org/1999/xlink" viewBox="0 0 600 800" width="600" height="800" role="img" aria-label="After Party — wedding invitation template preview"><defs><g id="mo"><line x1="0" y1="-96" x2="0" y2="-66" stroke="#8AF0DC" stroke-width="1.2" opacity="0.6"/><circle cx="0" cy="-28" r="38" fill="none" stroke="#8AF0DC" stroke-width="1.8" opacity="0.9"/><circle cx="0" cy="-28" r="13" fill="none" stroke="#8AF0DC" stroke-width="0.8" opacity="0.45"/><circle cx="0" cy="-28" r="26" fill="none" stroke="#8AF0DC" stroke-width="0.8" opacity="0.45"/><path d="M -32 -48.49 q 6 24 0 48" fill="none" stroke="#8AF0DC" stroke-width="0.8" opacity="0.45"/><path d="M -16 -62.47 q 6 24 0 48" fill="none" stroke="#8AF0DC" stroke-width="0.8" opacity="0.45"/><path d="M 0 -66 q -6 24 0 48" fill="none" stroke="#8AF0DC" stroke-width="0.8" opacity="0.45"/><path d="M 16 -62.47 q -6 24 0 48" fill="none" stroke="#8AF0DC" stroke-width="0.8" opacity="0.45"/><path d="M 32 -48.49 q -6 24 0 48" fill="none" stroke="#8AF0DC" stroke-width="0.8" opacity="0.45"/><line x1="13.79" y1="-65.89" x2="32.83" y2="-118.21" stroke="#8AF0DC" stroke-width="1" opacity="0.39" stroke-linecap="round"/><line x1="25.92" y1="-58.89" x2="61.71" y2="-101.54" stroke="#8AF0DC" stroke-width="1" opacity="0.39" stroke-linecap="round"/><line x1="34.92" y1="-48.16" x2="83.14" y2="-76" stroke="#8AF0DC" stroke-width="1" opacity="0.39" stroke-linecap="round"/><line x1="39.71" y1="-35" x2="94.54" y2="-44.67" stroke="#8AF0DC" stroke-width="1" opacity="0.39" stroke-linecap="round"/><line x1="39.71" y1="-21" x2="94.54" y2="-11.33" stroke="#8AF0DC" stroke-width="1" opacity="0.39" stroke-linecap="round"/><line x1="34.92" y1="-7.84" x2="83.14" y2="20" stroke="#8AF0DC" stroke-width="1" opacity="0.39" stroke-linecap="round"/><line x1="25.92" y1="2.89" x2="61.71" y2="45.54" stroke="#8AF0DC" stroke-width="1" opacity="0.39" stroke-linecap="round"/><line x1="13.79" y1="9.89" x2="32.83" y2="62.21" stroke="#8AF0DC" stroke-width="1" opacity="0.39" stroke-linecap="round"/><line x1="0" y1="12.32" x2="0" y2="68" stroke="#8AF0DC" stroke-width="1" opacity="0.39" stroke-linecap="round"/><path d="M -72 32.8 l 3.6 9.6 l 9.6 3.6 l -9.6 3.6 l -3.6 9.6 l -3.6 -9.6 l -9.6 -3.6 l 9.6 -3.6 Z" fill="#8AF0DC" opacity="0.63"/><path d="M 66 45 l 3 8 l 8 3 l -8 3 l -3 8 l -3 -8 l -8 -3 l 8 -3 Z" fill="#8AF0DC" opacity="0.63"/><path d="M -30 69.2 l 2.4 6.4 l 6.4 2.4 l -6.4 2.4 l -2.4 6.4 l -2.4 -6.4 l -6.4 -2.4 l 6.4 -2.4 Z" fill="#8AF0DC" opacity="0.63"/><path d="M 36 74.1 l 2.7 7.2 l 7.2 2.7 l -7.2 2.7 l -2.7 7.2 l -2.7 -7.2 l -7.2 -2.7 l 7.2 -2.7 Z" fill="#8AF0DC" opacity="0.63"/></g></defs><defs><linearGradient id="bg-after-party" x1="0" y1="0" x2="1" y2="1"><stop offset="0%" stop-color="#120A24"/><stop offset="55%" stop-color="#3A1060"/><stop offset="100%" stop-color="#120A24"/></linearGradient><radialGradient id="gl-after-party" cx="50%" cy="34%" r="62%"><stop offset="0%" stop-color="#FFFFFF" stop-opacity="0.16"/><stop offset="100%" stop-color="#FFFFFF" stop-opacity="0"/></radialGradient><linearGradient id="sh-after-party" x1="0" y1="0" x2="1" y2="1"><stop offset="0%" stop-color="#FFFFFF" stop-opacity="0.09"/><stop offset="45%" stop-color="#FFFFFF" stop-opacity="0"/></linearGradient></defs><rect x="0" y="0" width="600" height="800" fill="url(#bg-after-party)"/><rect x="0" y="0" width="600" height="800" fill="url(#gl-after-party)"/><rect x="0" y="0" width="600" height="800" fill="url(#sh-after-party)"/><line x1="48" y1="96" x2="552" y2="96" stroke="#EAD8FF" stroke-width="2" opacity="0.7"/><text x="52" y="76" font-family="Consolas, 'Courier New', monospace" font-size="15" letter-spacing="3" fill="#EAD8FF" opacity="0.7">AFTER PARTY</text><text x="548" y="76" text-anchor="end" font-family="Consolas, 'Courier New', monospace" font-size="15" letter-spacing="2" fill="#8AF0DC" opacity="0.8">02</text><g opacity="0.72"><use href="#mo" xlink:href="#mo" transform="translate(468 626) scale(0.86)"/></g><text x="52" y="300" font-family="Futura, 'Century Gothic', 'Segoe UI', Arial, sans-serif" font-size="66" letter-spacing="-1" font-weight="600" fill="#EAD8FF">AFTER</text><text x="52" y="376" font-family="Futura, 'Century Gothic', 'Segoe UI', Arial, sans-serif" font-size="66" letter-spacing="-1" font-weight="600" fill="#EAD8FF">PARTY</text><text x="52" y="486" font-family="Consolas, 'Courier New', monospace" font-size="20" fill="#EAD8FF" opacity="0.62">Doors at eleven</text><line x1="48" y1="706" x2="552" y2="706" stroke="#EAD8FF" stroke-width="2" opacity="0.7"/><text x="52" y="748" font-family="Consolas, 'Courier New', monospace" font-size="14" letter-spacing="4" fill="#EAD8FF" opacity="0.6">DRESS CODE: WHATEVER</text></svg>