<svg xmlns="http://www.w3.org/2000/svg" xmlns:xlink="http://www.w3.org/1999/xlink" viewBox="0 0 600 800" width="600" height="800" role="img" aria-label="Brazilian Tropical — wedding invitation template preview"><defs><g id="mo"><g transform="translate(-34 -14) scale(0.95) rotate(-18)"><path d="M 0 46 Q -40 30 -44 -10 Q -46 -46 0 -52 Q 46 -46 44 -10 Q 40 30 0 46 Z" fill="none" stroke="#8AC49A" stroke-width="1.4" opacity="0.7"/><path d="M -8 28 q -18 -6 -34 -2" fill="none" stroke="#8AC49A" stroke-width="1" opacity="0.46"/><path d="M -8 4 q -18 -6 -34 -2" fill="none" stroke="#8AC49A" stroke-width="1" opacity="0.46"/><path d="M -8 -20 q -18 -6 -34 -2" fill="none" stroke="#8AC49A" stroke-width="1" opacity="0.46"/><path d="M 8 28 q 18 -6 34 -2" fill="none" stroke="#8AC49A" stroke-width="1" opacity="0.46"/><path d="M 8 4 q 18 -6 34 -2" fill="none" stroke="#8AC49A" stroke-width="1" opacity="0.46"/><path d="M 8 -20 q 18 -6 34 -2" fill="none" stroke="#8AC49A" stroke-width="1" opacity="0.46"/><line x1="0" y1="46" x2="0" y2="78" stroke="#8AC49A" stroke-width="1.3" opacity="0.54"/></g><g transform="translate(40 -30) scale(0.7) rotate(22)"><path d="M 0 46 Q -40 30 -44 -10 Q -46 -46 0 -52 Q 46 -46 44 -10 Q 40 30 0 46 Z" fill="none" stroke="#8AC49A" stroke-width="1.4" opacity="0.7"/><path d="M -8 28 q -18 -6 -34 -2" fill="none" stroke="#8AC49A" stroke-width="1" opacity="0.46"/><path d="M -8 4 q -18 -6 -34 -2" fill="none" stroke="#8AC49A" stroke-width="1" opacity="0.46"/><path d="M -8 -20 q -18 -6 -34 -2" fill="none" stroke="#8AC49A" stroke-width="1" opacity="0.46"/><path d="M 8 28 q 18 -6 34 -2" fill="none" stroke="#8AC49A" stroke-width="1" opacity="0.46"/><path d="M 8 4 q 18 -6 34 -2" fill="none" stroke="#8AC49A" stroke-width="1" opacity="0.46"/><path d="M 8 -20 q 18 -6 34 -2" fill="none" stroke="#8AC49A" stroke-width="1" opacity="0.46"/><line x1="0" y1="46" x2="0" y2="78" stroke="#8AC49A" stroke-width="1.3" opacity="0.54"/></g><path d="M 62 34 Q 42.95 13 23.89 12" fill="none" stroke="#8AC49A" stroke-width="1.1" opacity="0.54"/><path d="M 62 34 Q 48.46 6.66 34.91 -0.67" fill="none" stroke="#8AC49A" stroke-width="1.1" opacity="0.54"/><path d="M 62 34 Q 55.94 2.85 49.87 -8.3" fill="none" stroke="#8AC49A" stroke-width="1.1" opacity="0.54"/><path d="M 62 34 Q 64.3 2.12 66.6 -9.76" fill="none" stroke="#8AC49A" stroke-width="1.1" opacity="0.54"/><path d="M 62 34 Q 72.33 4.58 82.66 -4.85" fill="none" stroke="#8AC49A" stroke-width="1.1" opacity="0.54"/><path d="M 62 34 Q 78.85 9.86 95.71 5.72" fill="none" stroke="#8AC49A" stroke-width="1.1" opacity="0.54"/><path d="M -70 40 Q -89.05 19 -108.11 18" fill="none" stroke="#8AC49A" stroke-width="1.1" opacity="0.54"/><path d="M -70 40 Q -83.54 12.66 -97.09 5.33" fill="none" stroke="#8AC49A" stroke-width="1.1" opacity="0.54"/><path d="M -70 40 Q -76.06 8.85 -82.13 -2.3" fill="none" stroke="#8AC49A" stroke-width="1.1" opacity="0.54"/><path d="M -70 40 Q -67.7 8.12 -65.4 -3.76" fill="none" stroke="#8AC49A" stroke-width="1.1" opacity="0.54"/><path d="M -70 40 Q -59.67 10.58 -49.34 1.15" fill="none" stroke="#8AC49A" stroke-width="1.1" opacity="0.54"/><path d="M -70 40 Q -53.15 15.86 -36.29 11.72" fill="none" stroke="#8AC49A" stroke-width="1.1" opacity="0.54"/><path d="M -20 62 q 14 -18 30 -6 q -10 20 -30 6 Z" fill="none" stroke="#8AC49A" stroke-width="1.1" opacity="0.49"/><path d="M 26 74 q 14 -18 30 -6 q -10 20 -30 6 Z" fill="none" stroke="#8AC49A" stroke-width="1.1" opacity="0.49"/></g></defs><defs><linearGradient id="bg-brazilian-tropical" x1="0" y1="0" x2="1" y2="1"><stop offset="0%" stop-color="#0C3226"/><stop offset="55%" stop-color="#1A5C3E"/><stop offset="100%" stop-color="#0C3226"/></linearGradient><radialGradient id="gl-brazilian-tropical" cx="50%" cy="34%" r="62%"><stop offset="0%" stop-color="#FFFFFF" stop-opacity="0.16"/><stop offset="100%" stop-color="#FFFFFF" stop-opacity="0"/></radialGradient><linearGradient id="sh-brazilian-tropical" x1="0" y1="0" x2="1" y2="1"><stop offset="0%" stop-color="#FFFFFF" stop-opacity="0.09"/><stop offset="45%" stop-color="#FFFFFF" stop-opacity="0"/></linearGradient></defs><rect x="0" y="0" width="600" height="800" fill="url(#bg-brazilian-tropical)"/><rect x="0" y="0" width="600" height="800" fill="url(#gl-brazilian-tropical)"/><rect x="0" y="0" width="600" height="800" fill="url(#sh-brazilian-tropical)"/><g opacity="0.95"><use href="#mo" xlink:href="#mo" transform="translate(138 150) scale(1.12) rotate(-14)"/></g><g opacity="0.62"><use href="#mo" xlink:href="#mo" transform="translate(470 214) scale(0.6) rotate(22)"/></g><g opacity="0.95"><use href="#mo" xlink:href="#mo" transform="translate(462 650) scale(1.12) rotate(166)"/></g><g opacity="0.62"><use href="#mo" xlink:href="#mo" transform="translate(130 586) scale(0.6) rotate(200)"/></g><text x="300" y="348" text-anchor="middle" font-family="Georgia, 'Times New Roman', serif" font-size="18" letter-spacing="7" fill="#8AC49A" opacity="0.72">CASAMENTO</text><line x1="218" y1="382" x2="276" y2="382" stroke="#8AC49A" stroke-width="1" opacity="0.5"/><circle cx="300" cy="382" r="2.8" fill="#8AC49A" opacity="0.65"/><line x1="324" y1="382" x2="382" y2="382" stroke="#8AC49A" stroke-width="1" opacity="0.5"/><text x="300" y="456" text-anchor="middle" font-family="Candara, Optima, 'Segoe UI', sans-serif" font-size="52" fill="#F6E8C8">Brazilian Tropical</text><text x="300" y="508" text-anchor="middle" font-family="Georgia, 'Times New Roman', serif" font-size="19" fill="#F6E8C8" opacity="0.68">Bride &amp; Groom</text><g opacity="0.5"><line x1="236" y1="552" x2="364" y2="552" stroke="#8AC49A" stroke-width="0.9"/></g><text x="300" y="596" text-anchor="middle" font-family="Georgia, 'Times New Roman', serif" font-size="16" letter-spacing="4.2" fill="#F6E8C8" opacity="0.6">FESTA NA PRAIA</text></svg>