<svg xmlns="http://www.w3.org/2000/svg" viewBox="0 0 600 800" width="600" height="800" role="img" aria-label="College Graduation Party invitation template preview"><defs><linearGradient id="bg-college-graduation-party" x1="0" y1="0" x2="1" y2="1"><stop offset="0%" stop-color="#0E3A5C"/><stop offset="55%" stop-color="#1E6E96"/><stop offset="100%" stop-color="#0E3A5C"/></linearGradient><radialGradient id="glow-college-graduation-party" cx="50%" cy="34%" r="62%"><stop offset="0%" stop-color="#FFFFFF" stop-opacity="0.42"/><stop offset="100%" stop-color="#FFFFFF" stop-opacity="0"/></radialGradient><linearGradient id="sheen-college-graduation-party" x1="0" y1="0" x2="1" y2="1"><stop offset="0%" stop-color="#FFFFFF" stop-opacity="0.20"/><stop offset="45%" stop-color="#FFFFFF" stop-opacity="0"/></linearGradient></defs><rect width="600" height="800" fill="url(#bg-college-graduation-party)"/><rect width="600" height="800" fill="url(#glow-college-graduation-party)"/><rect width="600" height="800" fill="url(#sheen-college-graduation-party)"/><g transform="translate(44 44) scale(1 1)" fill="none" stroke="#F5EBD8" stroke-width="1.6" opacity="0.42" stroke-linecap="round"><path d="M 0 46 V 8 Q 0 0 8 0 H 46"/><path d="M 14 40 V 20 Q 14 14 20 14 H 40"/><circle cx="9" cy="9" r="2.6" fill="#F5EBD8" stroke="none" opacity="0.8"/></g><g transform="translate(556 44) scale(-1 1)" fill="none" stroke="#F5EBD8" stroke-width="1.6" opacity="0.42" stroke-linecap="round"><path d="M 0 46 V 8 Q 0 0 8 0 H 46"/><path d="M 14 40 V 20 Q 14 14 20 14 H 40"/><circle cx="9" cy="9" r="2.6" fill="#F5EBD8" stroke="none" opacity="0.8"/></g><g transform="translate(44 756) scale(1 -1)" fill="none" stroke="#F5EBD8" stroke-width="1.6" opacity="0.42" stroke-linecap="round"><path d="M 0 46 V 8 Q 0 0 8 0 H 46"/><path d="M 14 40 V 20 Q 14 14 20 14 H 40"/><circle cx="9" cy="9" r="2.6" fill="#F5EBD8" stroke="none" opacity="0.8"/></g><g transform="translate(556 756) scale(-1 -1)" fill="none" stroke="#F5EBD8" stroke-width="1.6" opacity="0.42" stroke-linecap="round"><path d="M 0 46 V 8 Q 0 0 8 0 H 46"/><path d="M 14 40 V 20 Q 14 14 20 14 H 40"/><circle cx="9" cy="9" r="2.6" fill="#F5EBD8" stroke="none" opacity="0.8"/></g><rect x="34" y="34" width="532" height="732" fill="none" stroke="#F5EBD8" stroke-width="1.1" opacity="0.30" rx="6"/><rect x="44" y="44" width="512" height="712" fill="none" stroke="#F5EBD8" stroke-width="0.7" opacity="0.20" rx="4"/><circle cx="353.9" cy="380.8" r="3.4" fill="#E8B060" stroke="none" opacity="0.63"/><rect x="496.8" y="258.4" width="8.4" height="8.4" rx="1" fill="#C9A85E" stroke="none" transform="rotate(37 501.0 262.6)" opacity="0.64"/><path d="M 464.8 105.3 L 467.3 109.3 L 462.3 109.3 Z" fill="#F5EBD8" stroke="none" opacity="0.75"/><circle cx="413.5" cy="179.5" r="4.2" fill="#E8B060" stroke="none" opacity="0.42"/><rect x="233.0" y="234.4" width="5.4" height="5.4" rx="1" fill="#C9A85E" stroke="none" transform="rotate(148 235.7 237.1)" opacity="0.41"/><path d="M 303.5 300.1 L 306.4 304.8 L 300.5 304.8 Z" fill="#F5EBD8" stroke="none" opacity="0.61"/><circle cx="521.7" cy="113.6" r="2.8" fill="#E8B060" stroke="none" opacity="0.39"/><rect x="378.2" y="224.7" width="6.6" height="6.6" rx="1" fill="#C9A85E" stroke="none" transform="rotate(259 381.5 228.0)" opacity="0.45"/><path d="M 427.4 335.5 L 430.8 340.9 L 424.1 340.9 Z" fill="#F5EBD8" stroke="none" opacity="0.68"/><circle cx="176.3" cy="206.1" r="4.9" fill="#E8B060" stroke="none" opacity="0.44"/><rect x="132.2" y="102.3" width="8.0" height="8.0" rx="1" fill="#C9A85E" stroke="none" transform="rotate(10 136.2 106.3)" opacity="0.68"/><path d="M 93.8 245.8 L 97.0 250.9 L 90.6 250.9 Z" fill="#F5EBD8" stroke="none" opacity="0.48"/><circle cx="178.1" cy="219.0" r="2.4" fill="#E8B060" stroke="none" opacity="0.72"/><rect x="157.7" y="263.3" width="7.8" height="7.8" rx="1" fill="#C9A85E" stroke="none" transform="rotate(121 161.6 267.3)" opacity="0.61"/><path d="M 288.2 258.6 L 293.0 266.3 L 283.4 266.3 Z" fill="#F5EBD8" stroke="none" opacity="0.42"/><circle cx="162.3" cy="192.7" r="4.2" fill="#E8B060" stroke="none" opacity="0.52"/><rect x="247.0" y="118.4" width="4.8" height="4.8" rx="1" fill="#C9A85E" stroke="none" transform="rotate(232 249.3 120.8)" opacity="0.61"/><path d="M 175.3 240.6 L 178.0 245.0 L 172.6 245.0 Z" fill="#F5EBD8" stroke="none" opacity="0.47"/><circle cx="158.0" cy="386.5" r="3.9" fill="#E8B060" stroke="none" opacity="0.54"/><rect x="171.6" y="360.0" width="7.4" height="7.4" rx="1" fill="#C9A85E" stroke="none" transform="rotate(343 175.3 363.7)" opacity="0.40"/><path d="M 153.1 397.1 L 156.1 401.8 L 150.1 401.8 Z" fill="#F5EBD8" stroke="none" opacity="0.51"/><circle cx="114.3" cy="375.6" r="2.7" fill="#E8B060" stroke="none" opacity="0.58"/><rect x="399.6" y="265.0" width="6.3" height="6.3" rx="1" fill="#C9A85E" stroke="none" transform="rotate(94 402.7 268.2)" opacity="0.45"/><path d="M 389.1 174.5 L 392.9 180.6 L 385.2 180.6 Z" fill="#F5EBD8" stroke="none" opacity="0.73"/><circle cx="494.5" cy="310.8" r="3.8" fill="#E8B060" stroke="none" opacity="0.41"/><rect x="441.0" y="384.2" width="6.1" height="6.1" rx="1" fill="#C9A85E" stroke="none" transform="rotate(205 444.1 387.2)" opacity="0.37"/><g transform="translate(300 260) scale(1.00)"><path d="M 0 -6 L 66 -22 L 0 -38 L -66 -22 Z" fill="none" stroke="#F5EBD8" stroke-width="2"/><path d="M 0 -6 L 0 26" stroke="#F5EBD8" stroke-width="2"/><path d="M -24 14 L 24 14" stroke="#F5EBD8" stroke-width="2"/><path d="M -36 26 L -24 14 L -24 34 Z M 36 26 L 24 14 L 24 34 Z" fill="none" stroke="#F5EBD8" stroke-width="1.6"/><path d="M 66 -22 Q 84 -22 84 -32" fill="none" stroke="#E8B060" stroke-width="2.4" stroke-linecap="round"/><circle cx="0" cy="-22" r="4" fill="#E8B060" stroke="none"/><path d="M -30 -16 L -10 -10 M 30 -16 L 10 -10" stroke="#E8B060" stroke-width="1.4" stroke-linecap="round" opacity="0.6"/></g><g transform="translate(170 300) scale(0.60)"><ellipse cx="0" cy="-14" rx="24" ry="30" fill="none" stroke="#F5EBD8" stroke-width="2"/><path d="M -5 14 L 5 14 L 3 22 L -3 22 Z" fill="#F5EBD8" stroke="none"/><path d="M 0 22 V 44" stroke="#F5EBD8" stroke-width="1" opacity="0.6"/><path d="M -11 -32 C -16 -20 -14 -6 -7 3" fill="none" stroke="#C9A85E" stroke-width="2.2" stroke-linecap="round" opacity="0.85"/></g><g transform="translate(445 165)"><g transform="rotate(45)"><path d="M 0 -6 L 3 0 L 0 6 L -3 0 Z" fill="#C9A85E" stroke="none" opacity="0.8"/></g><circle cx="0" cy="0" r="2" fill="#E8B060" stroke="none"/></g><text x="300.0" y="418" text-anchor="middle" font-family="Georgia, 'Times New Roman', serif" font-size="15" letter-spacing="4.5" fill="#F5EBD8" opacity="0.72">COLLEGE GRADUATION PARTY</text><text x="300.0" y="488" text-anchor="middle" font-family="Georgia, serif" font-size="40" font-style="italic" fill="#F5EBD8">Celebrate Your Success</text><text x="300.0" y="532" text-anchor="middle" font-family="Georgia, serif" font-size="20" fill="#F5EBD8" opacity="0.68">Party for the class of 2027</text><line x1="216.0" y1="570" x2="276.0" y2="570" stroke="#F5EBD8" stroke-width="1" opacity="0.5"/><circle cx="300.0" cy="570" r="3.6" fill="#F5EBD8" opacity="0.65"/><line x1="324.0" y1="570" x2="384.0" y2="570" stroke="#F5EBD8" stroke-width="1" opacity="0.5"/><text x="300.0" y="604" text-anchor="middle" font-family="Georgia, serif" font-size="18" letter-spacing="4" fill="#F5EBD8" opacity="0.6">JUN 13 · 7 PM · STUDENT CENTRE</text></svg>