<svg xmlns="http://www.w3.org/2000/svg" viewBox="0 0 600 800" width="600" height="800" role="img" aria-label="Cultural Engagement invitation template preview"><defs><linearGradient id="bg-cultural-engagement" x1="0" y1="0" x2="1" y2="1"><stop offset="0%" stop-color="#4A1018"/><stop offset="55%" stop-color="#7A1E2A"/><stop offset="100%" stop-color="#4A1018"/></linearGradient><radialGradient id="glow-cultural-engagement" cx="50%" cy="34%" r="62%"><stop offset="0%" stop-color="#FFFFFF" stop-opacity="0.42"/><stop offset="100%" stop-color="#FFFFFF" stop-opacity="0"/></radialGradient><linearGradient id="sheen-cultural-engagement" x1="0" y1="0" x2="1" y2="1"><stop offset="0%" stop-color="#FFFFFF" stop-opacity="0.20"/><stop offset="45%" stop-color="#FFFFFF" stop-opacity="0"/></linearGradient></defs><rect width="600" height="800" fill="url(#bg-cultural-engagement)"/><rect width="600" height="800" fill="url(#glow-cultural-engagement)"/><rect width="600" height="800" fill="url(#sheen-cultural-engagement)"/><g transform="translate(44.0 44.0) scale(1 1)" fill="none" stroke="#F3D9A0" stroke-width="1.6" opacity="0.42" stroke-linecap="round"><path d="M 0 46 V 8 Q 0 0 8 0 H 46"/><path d="M 14 40 V 20 Q 14 14 20 14 H 40"/><circle cx="9" cy="9" r="2.6" fill="#F3D9A0" stroke="none" opacity="0.8"/></g><g transform="translate(556.0 44.0) scale(-1 1)" fill="none" stroke="#F3D9A0" stroke-width="1.6" opacity="0.42" stroke-linecap="round"><path d="M 0 46 V 8 Q 0 0 8 0 H 46"/><path d="M 14 40 V 20 Q 14 14 20 14 H 40"/><circle cx="9" cy="9" r="2.6" fill="#F3D9A0" stroke="none" opacity="0.8"/></g><g transform="translate(44.0 756.0) scale(1 -1)" fill="none" stroke="#F3D9A0" stroke-width="1.6" opacity="0.42" stroke-linecap="round"><path d="M 0 46 V 8 Q 0 0 8 0 H 46"/><path d="M 14 40 V 20 Q 14 14 20 14 H 40"/><circle cx="9" cy="9" r="2.6" fill="#F3D9A0" stroke="none" opacity="0.8"/></g><g transform="translate(556.0 756.0) scale(-1 -1)" fill="none" stroke="#F3D9A0" stroke-width="1.6" opacity="0.42" stroke-linecap="round"><path d="M 0 46 V 8 Q 0 0 8 0 H 46"/><path d="M 14 40 V 20 Q 14 14 20 14 H 40"/><circle cx="9" cy="9" r="2.6" fill="#F3D9A0" stroke="none" opacity="0.8"/></g><path d="M 84.0 62 a 21 21 0 0 1 43 0" fill="none" stroke="#F3D9A0" stroke-width="1.3" opacity="0.55"/><path d="M 127.0 62 a 21 21 0 0 1 43 0" fill="none" stroke="#F3D9A0" stroke-width="1.3" opacity="0.43000000000000005"/><path d="M 170.0 62 a 21 21 0 0 1 43 0" fill="none" stroke="#F3D9A0" stroke-width="1.3" opacity="0.31000000000000005"/><path d="M 213.0 62 a 21 21 0 0 1 43 0" fill="none" stroke="#F3D9A0" stroke-width="1.3" opacity="0.55"/><path d="M 256.0 62 a 21 21 0 0 1 43 0" fill="none" stroke="#F3D9A0" stroke-width="1.3" opacity="0.43000000000000005"/><path d="M 299.0 62 a 21 21 0 0 1 43 0" fill="none" stroke="#F3D9A0" stroke-width="1.3" opacity="0.31000000000000005"/><path d="M 342.0 62 a 21 21 0 0 1 43 0" fill="none" stroke="#F3D9A0" stroke-width="1.3" opacity="0.55"/><path d="M 385.0 62 a 21 21 0 0 1 43 0" fill="none" stroke="#F3D9A0" stroke-width="1.3" opacity="0.43000000000000005"/><path d="M 428.0 62 a 21 21 0 0 1 43 0" fill="none" stroke="#F3D9A0" stroke-width="1.3" opacity="0.31000000000000005"/><path d="M 471.0 62 a 21 21 0 0 1 43 0" fill="none" stroke="#F3D9A0" stroke-width="1.3" opacity="0.55"/><path d="M 514.0 62 a 21 21 0 0 1 43 0" fill="none" stroke="#F3D9A0" stroke-width="1.3" opacity="0.43000000000000005"/><line x1="70" y1="62" x2="530" y2="62" stroke="#F3D9A0" stroke-width="0.9" opacity="0.3"/><g transform="translate(300 320) scale(2.3)"><circle cx="0" cy="0" r="46" fill="none" stroke="#F3D9A0" stroke-width="1.1" opacity="0.4"/><circle cx="0" cy="0" r="36" fill="none" stroke="#F3D9A0" stroke-width="1.1" opacity="0.4"/><circle cx="0" cy="0" r="26" fill="none" stroke="#F3D9A0" stroke-width="1.1" opacity="0.55"/><circle cx="0" cy="0" r="12" fill="none" stroke="#F3D9A0" stroke-width="1.1" opacity="0.4"/><line x1="12.0" y1="0.0" x2="26.0" y2="0.0" stroke="#F3D9A0" stroke-width="1" opacity="0.5"/><path d="M 26.0 0.0 Q 35.6 5.0 46.0 0.0 Q 35.6 -5.0 26.0 0.0 z" fill="#F3D9A0" opacity="0.16"/><line x1="11.1" y1="4.6" x2="24.0" y2="9.9" stroke="#F3D9A0" stroke-width="1" opacity="0.5"/><path d="M 24.0 9.9 Q 31.0 18.3 42.5 17.6 Q 34.9 9.0 24.0 9.9 z" fill="#F3D9A0" opacity="0.16"/><line x1="8.5" y1="8.5" x2="18.4" y2="18.4" stroke="#F3D9A0" stroke-width="1" opacity="0.5"/><path d="M 18.4 18.4 Q 21.7 28.8 32.5 32.5 Q 28.8 21.7 18.4 18.4 z" fill="#F3D9A0" opacity="0.16"/><line x1="4.6" y1="11.1" x2="9.9" y2="24.0" stroke="#F3D9A0" stroke-width="1" opacity="0.5"/><path d="M 9.9 24.0 Q 9.0 34.9 17.6 42.5 Q 18.3 31.0 9.9 24.0 z" fill="#F3D9A0" opacity="0.16"/><line x1="0.0" y1="12.0" x2="0.0" y2="26.0" stroke="#F3D9A0" stroke-width="1" opacity="0.5"/><path d="M 0.0 26.0 Q -5.0 35.6 0.0 46.0 Q 5.0 35.6 0.0 26.0 z" fill="#F3D9A0" opacity="0.16"/><line x1="-4.6" y1="11.1" x2="-9.9" y2="24.0" stroke="#F3D9A0" stroke-width="1" opacity="0.5"/><path d="M -9.9 24.0 Q -18.3 31.0 -17.6 42.5 Q -9.0 34.9 -9.9 24.0 z" fill="#F3D9A0" opacity="0.16"/><line x1="-8.5" y1="8.5" x2="-18.4" y2="18.4" stroke="#F3D9A0" stroke-width="1" opacity="0.5"/><path d="M -18.4 18.4 Q -28.8 21.7 -32.5 32.5 Q -21.7 28.8 -18.4 18.4 z" fill="#F3D9A0" opacity="0.16"/><line x1="-11.1" y1="4.6" x2="-24.0" y2="9.9" stroke="#F3D9A0" stroke-width="1" opacity="0.5"/><path d="M -24.0 9.9 Q -34.9 9.0 -42.5 17.6 Q -31.0 18.3 -24.0 9.9 z" fill="#F3D9A0" opacity="0.16"/><line x1="-12.0" y1="0.0" x2="-26.0" y2="0.0" stroke="#F3D9A0" stroke-width="1" opacity="0.5"/><path d="M -26.0 0.0 Q -35.6 -5.0 -46.0 0.0 Q -35.6 5.0 -26.0 0.0 z" fill="#F3D9A0" opacity="0.16"/><line x1="-11.1" y1="-4.6" x2="-24.0" y2="-9.9" stroke="#F3D9A0" stroke-width="1" opacity="0.5"/><path d="M -24.0 -9.9 Q -31.0 -18.3 -42.5 -17.6 Q -34.9 -9.0 -24.0 -9.9 z" fill="#F3D9A0" opacity="0.16"/><line x1="-8.5" y1="-8.5" x2="-18.4" y2="-18.4" stroke="#F3D9A0" stroke-width="1" opacity="0.5"/><path d="M -18.4 -18.4 Q -21.7 -28.8 -32.5 -32.5 Q -28.8 -21.7 -18.4 -18.4 z" fill="#F3D9A0" opacity="0.16"/><line x1="-4.6" y1="-11.1" x2="-9.9" y2="-24.0" stroke="#F3D9A0" stroke-width="1" opacity="0.5"/><path d="M -9.9 -24.0 Q -9.0 -34.9 -17.6 -42.5 Q -18.3 -31.0 -9.9 -24.0 z" fill="#F3D9A0" opacity="0.16"/><line x1="0.0" y1="-12.0" x2="0.0" y2="-26.0" stroke="#F3D9A0" stroke-width="1" opacity="0.5"/><path d="M 0.0 -26.0 Q 5.0 -35.6 0.0 -46.0 Q -5.0 -35.6 0.0 -26.0 z" fill="#F3D9A0" opacity="0.16"/><line x1="4.6" y1="-11.1" x2="9.9" y2="-24.0" stroke="#F3D9A0" stroke-width="1" opacity="0.5"/><path d="M 9.9 -24.0 Q 18.3 -31.0 17.6 -42.5 Q 9.0 -34.9 9.9 -24.0 z" fill="#F3D9A0" opacity="0.16"/><line x1="8.5" y1="-8.5" x2="18.4" y2="-18.4" stroke="#F3D9A0" stroke-width="1" opacity="0.5"/><path d="M 18.4 -18.4 Q 28.8 -21.7 32.5 -32.5 Q 21.7 -28.8 18.4 -18.4 z" fill="#F3D9A0" opacity="0.16"/><line x1="11.1" y1="-4.6" x2="24.0" y2="-9.9" stroke="#F3D9A0" stroke-width="1" opacity="0.5"/><path d="M 24.0 -9.9 Q 34.9 -9.0 42.5 -17.6 Q 31.0 -18.3 24.0 -9.9 z" fill="#F3D9A0" opacity="0.16"/><circle cx="0" cy="0" r="4" fill="#F3D9A0" opacity="0.8"/></g><line x1="70" y1="424" x2="530" y2="424" stroke="#F3D9A0" stroke-width="0.9" opacity="0.3"/><path d="M 84.0 442 a 21 21 0 0 0 43 0" fill="none" stroke="#F3D9A0" stroke-width="1.3" opacity="0.55"/><path d="M 127.0 442 a 21 21 0 0 0 43 0" fill="none" stroke="#F3D9A0" stroke-width="1.3" opacity="0.43000000000000005"/><path d="M 170.0 442 a 21 21 0 0 0 43 0" fill="none" stroke="#F3D9A0" stroke-width="1.3" opacity="0.31000000000000005"/><path d="M 213.0 442 a 21 21 0 0 0 43 0" fill="none" stroke="#F3D9A0" stroke-width="1.3" opacity="0.55"/><path d="M 256.0 442 a 21 21 0 0 0 43 0" fill="none" stroke="#F3D9A0" stroke-width="1.3" opacity="0.43000000000000005"/><path d="M 299.0 442 a 21 21 0 0 0 43 0" fill="none" stroke="#F3D9A0" stroke-width="1.3" opacity="0.31000000000000005"/><path d="M 342.0 442 a 21 21 0 0 0 43 0" fill="none" stroke="#F3D9A0" stroke-width="1.3" opacity="0.55"/><path d="M 385.0 442 a 21 21 0 0 0 43 0" fill="none" stroke="#F3D9A0" stroke-width="1.3" opacity="0.43000000000000005"/><path d="M 428.0 442 a 21 21 0 0 0 43 0" fill="none" stroke="#F3D9A0" stroke-width="1.3" opacity="0.31000000000000005"/><path d="M 471.0 442 a 21 21 0 0 0 43 0" fill="none" stroke="#F3D9A0" stroke-width="1.3" opacity="0.55"/><path d="M 514.0 442 a 21 21 0 0 0 43 0" fill="none" stroke="#F3D9A0" stroke-width="1.3" opacity="0.43000000000000005"/><circle cx="300" cy="120" r="4" fill="#F3D9A0" opacity="0.5"/><text x="300.0" y="470" text-anchor="middle" font-family="Georgia, 'Times New Roman', serif" font-size="21" letter-spacing="7.5" fill="#F3D9A0" opacity="0.72">CELEBRATING OUR LOVE</text><line x1="216.0" y1="494" x2="276.0" y2="494" stroke="#F3D9A0" stroke-width="1" opacity="0.5"/><circle cx="300.0" cy="494" r="3.6" fill="#F3D9A0" opacity="0.65"/><line x1="324.0" y1="494" x2="384.0" y2="494" stroke="#F3D9A0" stroke-width="1" opacity="0.5"/><text x="300.0" y="580" text-anchor="middle" font-family="Georgia, serif" font-size="56" font-style="italic" fill="#F3D9A0">Cultural Engagement</text><text x="300.0" y="636" text-anchor="middle" font-family="Georgia, serif" font-size="20" fill="#F3D9A0" opacity="0.68">Heritage Meets Promise</text><g opacity="0.55"><line x1="230.0" y1="684" x2="370.0" y2="684" stroke="#F3D9A0" stroke-width="0.9"/></g><text x="300.0" y="722" text-anchor="middle" font-family="Georgia, serif" font-size="18" letter-spacing="4" fill="#F3D9A0" opacity="0.6">SAVE THE DATE</text></svg>