<svg xmlns="http://www.w3.org/2000/svg" xmlns:xlink="http://www.w3.org/1999/xlink" viewBox="0 0 600 800" width="600" height="800" role="img" aria-label="Haldi Ceremony — wedding invitation template preview"><defs><g id="mo"><path d="M -46 -6 Q -52 34 0 42 Q 52 34 46 -6 Z" fill="none" stroke="#F2C64E" stroke-width="1.7" opacity="0.78"/><path d="M -50 -6 Q 0 -22 50 -6 Q 0 10 -50 -6 Z" fill="none" stroke="#F2C64E" stroke-width="1.4" opacity="0.65"/><path d="M -34 -4 Q 0 6 34 -4" fill="none" stroke="#F2C64E" stroke-width="0.8" opacity="0.36"/><g transform="translate(-22 -14) rotate(-22)"><line x1="0" y1="0" x2="0" y2="-52" stroke="#F2C64E" stroke-width="2.6" opacity="0.65" stroke-linecap="round"/><path d="M -7 -52 q 7 -16 14 0 q -7 8 -14 0 Z" fill="none" stroke="#F2C64E" stroke-width="1.2" opacity="0.62"/></g><g transform="translate(10 -14) rotate(16)"><line x1="0" y1="0" x2="0" y2="-52" stroke="#F2C64E" stroke-width="2.6" opacity="0.65" stroke-linecap="round"/><path d="M -7 -52 q 7 -16 14 0 q -7 8 -14 0 Z" fill="none" stroke="#F2C64E" stroke-width="1.2" opacity="0.62"/></g><path d="M -65 22 Q -57.27 31.24 -48.2 22 Q -57.27 12.76 -65 22 Z" fill="none" stroke="#F2C64E" stroke-width="1.2" opacity="0.52"/><path d="M -65.57 23.76 Q -64.75 35.78 -51.98 33.64 Q -53.89 20.83 -65.57 23.76 Z" fill="none" stroke="#F2C64E" stroke-width="1.2" opacity="0.52"/><path d="M -67.07 24.85 Q -73.47 35.06 -61.88 40.83 Q -55.9 29.35 -67.07 24.85 Z" fill="none" stroke="#F2C64E" stroke-width="1.2" opacity="0.52"/><path d="M -68.93 24.85 Q -80.1 29.35 -74.12 40.83 Q -62.53 35.06 -68.93 24.85 Z" fill="none" stroke="#F2C64E" stroke-width="1.2" opacity="0.52"/><path d="M -70.43 23.76 Q -82.11 20.83 -84.02 33.64 Q -71.25 35.78 -70.43 23.76 Z" fill="none" stroke="#F2C64E" stroke-width="1.2" opacity="0.52"/><path d="M -71 22 Q -78.73 12.76 -87.8 22 Q -78.73 31.24 -71 22 Z" fill="none" stroke="#F2C64E" stroke-width="1.2" opacity="0.52"/><path d="M -70.43 20.24 Q -71.25 8.22 -84.02 10.36 Q -82.11 23.17 -70.43 20.24 Z" fill="none" stroke="#F2C64E" stroke-width="1.2" opacity="0.52"/><path d="M -68.93 19.15 Q -62.53 8.94 -74.12 3.17 Q -80.1 14.65 -68.93 19.15 Z" fill="none" stroke="#F2C64E" stroke-width="1.2" opacity="0.52"/><path d="M -67.07 19.15 Q -55.9 14.65 -61.88 3.17 Q -73.47 8.94 -67.07 19.15 Z" fill="none" stroke="#F2C64E" stroke-width="1.2" opacity="0.52"/><path d="M -65.57 20.24 Q -53.89 23.17 -51.98 10.36 Q -64.75 8.22 -65.57 20.24 Z" fill="none" stroke="#F2C64E" stroke-width="1.2" opacity="0.52"/><path d="M -66.1 22.62 Q -63.5 29.07 -56.87 25.62 Q -60.21 18.92 -66.1 22.62 Z" fill="none" stroke="#F2C64E" stroke-width="1.2" opacity="0.65"/><path d="M -67.09 23.78 Q -69.82 30.18 -62.69 32.42 Q -60.31 25.34 -67.09 23.78 Z" fill="none" stroke="#F2C64E" stroke-width="1.2" opacity="0.65"/><path d="M -68.62 23.9 Q -75.07 26.5 -71.62 33.13 Q -64.92 29.79 -68.62 23.9 Z" fill="none" stroke="#F2C64E" stroke-width="1.2" opacity="0.65"/><path d="M -69.78 22.91 Q -76.18 20.18 -78.42 27.31 Q -71.34 29.69 -69.78 22.91 Z" fill="none" stroke="#F2C64E" stroke-width="1.2" opacity="0.65"/><path d="M -69.9 21.38 Q -72.5 14.93 -79.13 18.38 Q -75.79 25.08 -69.9 21.38 Z" fill="none" stroke="#F2C64E" stroke-width="1.2" opacity="0.65"/><path d="M -68.91 20.22 Q -66.18 13.82 -73.31 11.58 Q -75.69 18.66 -68.91 20.22 Z" fill="none" stroke="#F2C64E" stroke-width="1.2" opacity="0.65"/><path d="M -67.38 20.1 Q -60.93 17.5 -64.38 10.87 Q -71.08 14.21 -67.38 20.1 Z" fill="none" stroke="#F2C64E" stroke-width="1.2" opacity="0.65"/><path d="M -66.22 21.09 Q -59.82 23.82 -57.58 16.69 Q -64.66 14.31 -66.22 21.09 Z" fill="none" stroke="#F2C64E" stroke-width="1.2" opacity="0.65"/><circle cx="-68" cy="22" r="2.7" fill="#F2C64E" opacity="0.65"/><path d="M 71 18 Q 78.73 27.24 87.8 18 Q 78.73 8.76 71 18 Z" fill="none" stroke="#F2C64E" stroke-width="1.2" opacity="0.52"/><path d="M 70.43 19.76 Q 71.25 31.78 84.02 29.64 Q 82.11 16.83 70.43 19.76 Z" fill="none" stroke="#F2C64E" stroke-width="1.2" opacity="0.52"/><path d="M 68.93 20.85 Q 62.53 31.06 74.12 36.83 Q 80.1 25.35 68.93 20.85 Z" fill="none" stroke="#F2C64E" stroke-width="1.2" opacity="0.52"/><path d="M 67.07 20.85 Q 55.9 25.35 61.88 36.83 Q 73.47 31.06 67.07 20.85 Z" fill="none" stroke="#F2C64E" stroke-width="1.2" opacity="0.52"/><path d="M 65.57 19.76 Q 53.89 16.83 51.98 29.64 Q 64.75 31.78 65.57 19.76 Z" fill="none" stroke="#F2C64E" stroke-width="1.2" opacity="0.52"/><path d="M 65 18 Q 57.27 8.76 48.2 18 Q 57.27 27.24 65 18 Z" fill="none" stroke="#F2C64E" stroke-width="1.2" opacity="0.52"/><path d="M 65.57 16.24 Q 64.75 4.22 51.98 6.36 Q 53.89 19.17 65.57 16.24 Z" fill="none" stroke="#F2C64E" stroke-width="1.2" opacity="0.52"/><path d="M 67.07 15.15 Q 73.47 4.94 61.88 -0.83 Q 55.9 10.65 67.07 15.15 Z" fill="none" stroke="#F2C64E" stroke-width="1.2" opacity="0.52"/><path d="M 68.93 15.15 Q 80.1 10.65 74.12 -0.83 Q 62.53 4.94 68.93 15.15 Z" fill="none" stroke="#F2C64E" stroke-width="1.2" opacity="0.52"/><path d="M 70.43 16.24 Q 82.11 19.17 84.02 6.36 Q 71.25 4.22 70.43 16.24 Z" fill="none" stroke="#F2C64E" stroke-width="1.2" opacity="0.52"/><path d="M 69.9 18.62 Q 72.5 25.07 79.13 21.62 Q 75.79 14.92 69.9 18.62 Z" fill="none" stroke="#F2C64E" stroke-width="1.2" opacity="0.65"/><path d="M 68.91 19.78 Q 66.18 26.18 73.31 28.42 Q 75.69 21.34 68.91 19.78 Z" fill="none" stroke="#F2C64E" stroke-width="1.2" opacity="0.65"/><path d="M 67.38 19.9 Q 60.93 22.5 64.38 29.13 Q 71.08 25.79 67.38 19.9 Z" fill="none" stroke="#F2C64E" stroke-width="1.2" opacity="0.65"/><path d="M 66.22 18.91 Q 59.82 16.18 57.58 23.31 Q 64.66 25.69 66.22 18.91 Z" fill="none" stroke="#F2C64E" stroke-width="1.2" opacity="0.65"/><path d="M 66.1 17.38 Q 63.5 10.93 56.87 14.38 Q 60.21 21.08 66.1 17.38 Z" fill="none" stroke="#F2C64E" stroke-width="1.2" opacity="0.65"/><path d="M 67.09 16.22 Q 69.82 9.82 62.69 7.58 Q 60.31 14.66 67.09 16.22 Z" fill="none" stroke="#F2C64E" stroke-width="1.2" opacity="0.65"/><path d="M 68.62 16.1 Q 75.07 13.5 71.62 6.87 Q 64.92 10.21 68.62 16.1 Z" fill="none" stroke="#F2C64E" stroke-width="1.2" opacity="0.65"/><path d="M 69.78 17.09 Q 76.18 19.82 78.42 12.69 Q 71.34 10.31 69.78 17.09 Z" fill="none" stroke="#F2C64E" stroke-width="1.2" opacity="0.65"/><circle cx="68" cy="18" r="2.7" fill="#F2C64E" opacity="0.65"/><path d="M -43 62 Q -37.8 68.22 -31.7 62 Q -37.8 55.78 -43 62 Z" fill="none" stroke="#F2C64E" stroke-width="1.2" opacity="0.52"/><path d="M -43.57 63.76 Q -43.02 71.85 -34.43 70.41 Q -35.71 61.79 -43.57 63.76 Z" fill="none" stroke="#F2C64E" stroke-width="1.2" opacity="0.52"/><path d="M -45.07 64.85 Q -49.38 71.72 -41.58 75.6 Q -37.56 67.88 -45.07 64.85 Z" fill="none" stroke="#F2C64E" stroke-width="1.2" opacity="0.52"/><path d="M -46.93 64.85 Q -54.44 67.88 -50.42 75.6 Q -42.62 71.72 -46.93 64.85 Z" fill="none" stroke="#F2C64E" stroke-width="1.2" opacity="0.52"/><path d="M -48.43 63.76 Q -56.29 61.79 -57.57 70.41 Q -48.98 71.85 -48.43 63.76 Z" fill="none" stroke="#F2C64E" stroke-width="1.2" opacity="0.52"/><path d="M -49 62 Q -54.2 55.78 -60.3 62 Q -54.2 68.22 -49 62 Z" fill="none" stroke="#F2C64E" stroke-width="1.2" opacity="0.52"/><path d="M -48.43 60.24 Q -48.98 52.15 -57.57 53.59 Q -56.29 62.21 -48.43 60.24 Z" fill="none" stroke="#F2C64E" stroke-width="1.2" opacity="0.52"/><path d="M -46.93 59.15 Q -42.62 52.28 -50.42 48.4 Q -54.44 56.12 -46.93 59.15 Z" fill="none" stroke="#F2C64E" stroke-width="1.2" opacity="0.52"/><path d="M -45.07 59.15 Q -37.56 56.12 -41.58 48.4 Q -49.38 52.28 -45.07 59.15 Z" fill="none" stroke="#F2C64E" stroke-width="1.2" opacity="0.52"/><path d="M -43.57 60.24 Q -35.71 62.21 -34.43 53.59 Q -43.02 52.15 -43.57 60.24 Z" fill="none" stroke="#F2C64E" stroke-width="1.2" opacity="0.52"/><path d="M -44.1 62.62 Q -42.37 66.91 -37.96 64.61 Q -40.18 60.16 -44.1 62.62 Z" fill="none" stroke="#F2C64E" stroke-width="1.2" opacity="0.65"/><path d="M -45.09 63.78 Q -46.91 68.04 -42.16 69.53 Q -40.58 64.82 -45.09 63.78 Z" fill="none" stroke="#F2C64E" stroke-width="1.2" opacity="0.65"/><path d="M -46.62 63.9 Q -50.91 65.63 -48.61 70.04 Q -44.16 67.82 -46.62 63.9 Z" fill="none" stroke="#F2C64E" stroke-width="1.2" opacity="0.65"/><path d="M -47.78 62.91 Q -52.04 61.09 -53.53 65.84 Q -48.82 67.42 -47.78 62.91 Z" fill="none" stroke="#F2C64E" stroke-width="1.2" opacity="0.65"/><path d="M -47.9 61.38 Q -49.63 57.09 -54.04 59.39 Q -51.82 63.84 -47.9 61.38 Z" fill="none" stroke="#F2C64E" stroke-width="1.2" opacity="0.65"/><path d="M -46.91 60.22 Q -45.09 55.96 -49.84 54.47 Q -51.42 59.18 -46.91 60.22 Z" fill="none" stroke="#F2C64E" stroke-width="1.2" opacity="0.65"/><path d="M -45.38 60.1 Q -41.09 58.37 -43.39 53.96 Q -47.84 56.18 -45.38 60.1 Z" fill="none" stroke="#F2C64E" stroke-width="1.2" opacity="0.65"/><path d="M -44.22 61.09 Q -39.96 62.91 -38.47 58.16 Q -43.18 56.58 -44.22 61.09 Z" fill="none" stroke="#F2C64E" stroke-width="1.2" opacity="0.65"/><circle cx="-46" cy="62" r="1.95" fill="#F2C64E" opacity="0.65"/><path d="M 51 64 Q 56.2 70.22 62.3 64 Q 56.2 57.78 51 64 Z" fill="none" stroke="#F2C64E" stroke-width="1.2" opacity="0.52"/><path d="M 50.43 65.76 Q 50.98 73.85 59.57 72.41 Q 58.29 63.79 50.43 65.76 Z" fill="none" stroke="#F2C64E" stroke-width="1.2" opacity="0.52"/><path d="M 48.93 66.85 Q 44.62 73.72 52.42 77.6 Q 56.44 69.88 48.93 66.85 Z" fill="none" stroke="#F2C64E" stroke-width="1.2" opacity="0.52"/><path d="M 47.07 66.85 Q 39.56 69.88 43.58 77.6 Q 51.38 73.72 47.07 66.85 Z" fill="none" stroke="#F2C64E" stroke-width="1.2" opacity="0.52"/><path d="M 45.57 65.76 Q 37.71 63.79 36.43 72.41 Q 45.02 73.85 45.57 65.76 Z" fill="none" stroke="#F2C64E" stroke-width="1.2" opacity="0.52"/><path d="M 45 64 Q 39.8 57.78 33.7 64 Q 39.8 70.22 45 64 Z" fill="none" stroke="#F2C64E" stroke-width="1.2" opacity="0.52"/><path d="M 45.57 62.24 Q 45.02 54.15 36.43 55.59 Q 37.71 64.21 45.57 62.24 Z" fill="none" stroke="#F2C64E" stroke-width="1.2" opacity="0.52"/><path d="M 47.07 61.15 Q 51.38 54.28 43.58 50.4 Q 39.56 58.12 47.07 61.15 Z" fill="none" stroke="#F2C64E" stroke-width="1.2" opacity="0.52"/><path d="M 48.93 61.15 Q 56.44 58.12 52.42 50.4 Q 44.62 54.28 48.93 61.15 Z" fill="none" stroke="#F2C64E" stroke-width="1.2" opacity="0.52"/><path d="M 50.43 62.24 Q 58.29 64.21 59.57 55.59 Q 50.98 54.15 50.43 62.24 Z" fill="none" stroke="#F2C64E" stroke-width="1.2" opacity="0.52"/><path d="M 49.9 64.62 Q 51.63 68.91 56.04 66.61 Q 53.82 62.16 49.9 64.62 Z" fill="none" stroke="#F2C64E" stroke-width="1.2" opacity="0.65"/><path d="M 48.91 65.78 Q 47.09 70.04 51.84 71.53 Q 53.42 66.82 48.91 65.78 Z" fill="none" stroke="#F2C64E" stroke-width="1.2" opacity="0.65"/><path d="M 47.38 65.9 Q 43.09 67.63 45.39 72.04 Q 49.84 69.82 47.38 65.9 Z" fill="none" stroke="#F2C64E" stroke-width="1.2" opacity="0.65"/><path d="M 46.22 64.91 Q 41.96 63.09 40.47 67.84 Q 45.18 69.42 46.22 64.91 Z" fill="none" stroke="#F2C64E" stroke-width="1.2" opacity="0.65"/><path d="M 46.1 63.38 Q 44.37 59.09 39.96 61.39 Q 42.18 65.84 46.1 63.38 Z" fill="none" stroke="#F2C64E" stroke-width="1.2" opacity="0.65"/><path d="M 47.09 62.22 Q 48.91 57.96 44.16 56.47 Q 42.58 61.18 47.09 62.22 Z" fill="none" stroke="#F2C64E" stroke-width="1.2" opacity="0.65"/><path d="M 48.62 62.1 Q 52.91 60.37 50.61 55.96 Q 46.16 58.18 48.62 62.1 Z" fill="none" stroke="#F2C64E" stroke-width="1.2" opacity="0.65"/><path d="M 49.78 63.09 Q 54.04 64.91 55.53 60.16 Q 50.82 58.58 49.78 63.09 Z" fill="none" stroke="#F2C64E" stroke-width="1.2" opacity="0.65"/><circle cx="48" cy="64" r="1.95" fill="#F2C64E" opacity="0.65"/><path d="M -74 -52 q 12 -8 24 0" fill="none" stroke="#F2C64E" stroke-width="1" opacity="0.39"/></g></defs><defs><linearGradient id="bg-haldi-ceremony" x1="0" y1="0" x2="1" y2="1"><stop offset="0%" stop-color="#4A3200"/><stop offset="55%" stop-color="#B8860B"/><stop offset="100%" stop-color="#4A3200"/></linearGradient><radialGradient id="gl-haldi-ceremony" cx="50%" cy="34%" r="62%"><stop offset="0%" stop-color="#FFFFFF" stop-opacity="0.16"/><stop offset="100%" stop-color="#FFFFFF" stop-opacity="0"/></radialGradient><linearGradient id="sh-haldi-ceremony" x1="0" y1="0" x2="1" y2="1"><stop offset="0%" stop-color="#FFFFFF" stop-opacity="0.09"/><stop offset="45%" stop-color="#FFFFFF" stop-opacity="0"/></linearGradient></defs><rect x="0" y="0" width="600" height="800" fill="url(#bg-haldi-ceremony)"/><rect x="0" y="0" width="600" height="800" fill="url(#gl-haldi-ceremony)"/><rect x="0" y="0" width="600" height="800" fill="url(#sh-haldi-ceremony)"/><g transform="translate(44 44) scale(1 1)"><circle cx="6" cy="6" r="1.9" fill="#F2C64E" opacity="0.42"/><circle cx="6" cy="19" r="1.9" fill="#F2C64E" opacity="0.36"/><circle cx="6" cy="32" r="1.9" fill="#F2C64E" opacity="0.3"/><circle cx="6" cy="45" r="1.9" fill="#F2C64E" opacity="0.24"/><circle cx="19" cy="6" r="1.9" fill="#F2C64E" opacity="0.36"/><circle cx="19" cy="19" r="1.9" fill="#F2C64E" opacity="0.3"/><circle cx="19" cy="32" r="1.9" fill="#F2C64E" opacity="0.24"/><circle cx="32" cy="6" r="1.9" fill="#F2C64E" opacity="0.3"/><circle cx="32" cy="19" r="1.9" fill="#F2C64E" opacity="0.24"/><circle cx="45" cy="6" r="1.9" fill="#F2C64E" opacity="0.24"/></g><g transform="translate(556 44) scale(-1 1)"><circle cx="6" cy="6" r="1.9" fill="#F2C64E" opacity="0.42"/><circle cx="6" cy="19" r="1.9" fill="#F2C64E" opacity="0.36"/><circle cx="6" cy="32" r="1.9" fill="#F2C64E" opacity="0.3"/><circle cx="6" cy="45" r="1.9" fill="#F2C64E" opacity="0.24"/><circle cx="19" cy="6" r="1.9" fill="#F2C64E" opacity="0.36"/><circle cx="19" cy="19" r="1.9" fill="#F2C64E" opacity="0.3"/><circle cx="19" cy="32" r="1.9" fill="#F2C64E" opacity="0.24"/><circle cx="32" cy="6" r="1.9" fill="#F2C64E" opacity="0.3"/><circle cx="32" cy="19" r="1.9" fill="#F2C64E" opacity="0.24"/><circle cx="45" cy="6" r="1.9" fill="#F2C64E" opacity="0.24"/></g><g transform="translate(44 756) scale(1 -1)"><circle cx="6" cy="6" r="1.9" fill="#F2C64E" opacity="0.42"/><circle cx="6" cy="19" r="1.9" fill="#F2C64E" opacity="0.36"/><circle cx="6" cy="32" r="1.9" fill="#F2C64E" opacity="0.3"/><circle cx="6" cy="45" r="1.9" fill="#F2C64E" opacity="0.24"/><circle cx="19" cy="6" r="1.9" fill="#F2C64E" opacity="0.36"/><circle cx="19" cy="19" r="1.9" fill="#F2C64E" opacity="0.3"/><circle cx="19" cy="32" r="1.9" fill="#F2C64E" opacity="0.24"/><circle cx="32" cy="6" r="1.9" fill="#F2C64E" opacity="0.3"/><circle cx="32" cy="19" r="1.9" fill="#F2C64E" opacity="0.24"/><circle cx="45" cy="6" r="1.9" fill="#F2C64E" opacity="0.24"/></g><g transform="translate(556 756) scale(-1 -1)"><circle cx="6" cy="6" r="1.9" fill="#F2C64E" opacity="0.42"/><circle cx="6" cy="19" r="1.9" fill="#F2C64E" opacity="0.36"/><circle cx="6" cy="32" r="1.9" fill="#F2C64E" opacity="0.3"/><circle cx="6" cy="45" r="1.9" fill="#F2C64E" opacity="0.24"/><circle cx="19" cy="6" r="1.9" fill="#F2C64E" opacity="0.36"/><circle cx="19" cy="19" r="1.9" fill="#F2C64E" opacity="0.3"/><circle cx="19" cy="32" r="1.9" fill="#F2C64E" opacity="0.24"/><circle cx="32" cy="6" r="1.9" fill="#F2C64E" opacity="0.3"/><circle cx="32" cy="19" r="1.9" fill="#F2C64E" opacity="0.24"/><circle cx="45" cy="6" r="1.9" fill="#F2C64E" opacity="0.24"/></g><rect x="34" y="34" width="532" height="732" fill="none" stroke="#F2C64E" stroke-width="1.1" rx="6" opacity="0.3"/><rect x="44" y="44" width="512" height="712" fill="none" stroke="#F2C64E" stroke-width="0.7" rx="4" opacity="0.2"/><use href="#mo" xlink:href="#mo" transform="translate(300 298) scale(1.14)"/><text x="300" y="470" text-anchor="middle" font-family="Georgia, 'Times New Roman', serif" font-size="20" letter-spacing="7.5" fill="#F2C64E" opacity="0.72">HALDI</text><line x1="192" y1="494" x2="276" y2="494" stroke="#F2C64E" stroke-width="1" opacity="0.5"/><circle cx="300" cy="494" r="3.6" fill="#F2C64E" opacity="0.65"/><line x1="324" y1="494" x2="408" y2="494" stroke="#F2C64E" stroke-width="1" opacity="0.5"/><text x="300" y="580" text-anchor="middle" font-family="Cambria, Georgia, 'Times New Roman', serif" font-size="56" font-style="italic" fill="#FFF0C4">Haldi Ceremony</text><text x="300" y="636" text-anchor="middle" font-family="Georgia, 'Times New Roman', serif" font-size="20" fill="#FFF0C4" opacity="0.68">Bride &amp; Groom</text><g opacity="0.55"><line x1="230" y1="684" x2="370" y2="684" stroke="#F2C64E" stroke-width="0.9"/></g><text x="300" y="722" text-anchor="middle" font-family="Georgia, 'Times New Roman', serif" font-size="18" letter-spacing="4" fill="#FFF0C4" opacity="0.6">WEAR SOMETHING YOU CAN STAIN</text></svg>