<svg xmlns="http://www.w3.org/2000/svg" viewBox="0 0 600 800" width="600" height="800" role="img" aria-label="One Chapter Ends invitation template preview"><defs><linearGradient id="bg-one-chapter-ends" x1="0" y1="0" x2="1" y2="1"><stop offset="0%" stop-color="#2E1B0E"/><stop offset="55%" stop-color="#5C3A1A"/><stop offset="100%" stop-color="#2E1B0E"/></linearGradient><radialGradient id="glow-one-chapter-ends" cx="50%" cy="34%" r="62%"><stop offset="0%" stop-color="#FFFFFF" stop-opacity="0.42"/><stop offset="100%" stop-color="#FFFFFF" stop-opacity="0"/></radialGradient><linearGradient id="sheen-one-chapter-ends" x1="0" y1="0" x2="1" y2="1"><stop offset="0%" stop-color="#FFFFFF" stop-opacity="0.20"/><stop offset="45%" stop-color="#FFFFFF" stop-opacity="0"/></linearGradient></defs><rect width="600" height="800" fill="url(#bg-one-chapter-ends)"/><rect width="600" height="800" fill="url(#glow-one-chapter-ends)"/><rect width="600" height="800" fill="url(#sheen-one-chapter-ends)"/><g transform="translate(44 44) scale(1 1)" fill="none" stroke="#F6E2CE" stroke-width="1.6" opacity="0.42" stroke-linecap="round"><path d="M 0 46 V 8 Q 0 0 8 0 H 46"/><path d="M 14 40 V 20 Q 14 14 20 14 H 40"/><circle cx="9" cy="9" r="2.6" fill="#F6E2CE" stroke="none" opacity="0.8"/></g><g transform="translate(556 44) scale(-1 1)" fill="none" stroke="#F6E2CE" stroke-width="1.6" opacity="0.42" stroke-linecap="round"><path d="M 0 46 V 8 Q 0 0 8 0 H 46"/><path d="M 14 40 V 20 Q 14 14 20 14 H 40"/><circle cx="9" cy="9" r="2.6" fill="#F6E2CE" stroke="none" opacity="0.8"/></g><g transform="translate(44 756) scale(1 -1)" fill="none" stroke="#F6E2CE" stroke-width="1.6" opacity="0.42" stroke-linecap="round"><path d="M 0 46 V 8 Q 0 0 8 0 H 46"/><path d="M 14 40 V 20 Q 14 14 20 14 H 40"/><circle cx="9" cy="9" r="2.6" fill="#F6E2CE" stroke="none" opacity="0.8"/></g><g transform="translate(556 756) scale(-1 -1)" fill="none" stroke="#F6E2CE" stroke-width="1.6" opacity="0.42" stroke-linecap="round"><path d="M 0 46 V 8 Q 0 0 8 0 H 46"/><path d="M 14 40 V 20 Q 14 14 20 14 H 40"/><circle cx="9" cy="9" r="2.6" fill="#F6E2CE" stroke="none" opacity="0.8"/></g><rect x="34" y="34" width="532" height="732" fill="none" stroke="#F6E2CE" stroke-width="1.1" opacity="0.30" rx="6"/><rect x="44" y="44" width="512" height="712" fill="none" stroke="#F6E2CE" stroke-width="0.7" opacity="0.20" rx="4"/><g transform="translate(300 248)"><rect x="-40" y="-36" width="80" height="34" rx="3" fill="none" stroke="#F6E2CE" stroke-width="2"/><rect x="-32" y="-28" width="64" height="18" rx="2" fill="none" stroke="#C9A85E" stroke-width="1" opacity="0.6"/><path d="M -24 -22 H 24 M -24 -16 H 16" stroke="#C9A85E" stroke-width="1.2" opacity="0.7"/><path d="M -34 -2 L -34 30 L 0 44 L 34 30 L 34 -2 Z" fill="none" stroke="#F6E2CE" stroke-width="2"/><path d="M 0 44 L 0 16 M -34 30 L 0 16 L 34 30" stroke="#F6E2CE" stroke-width="1.4" opacity="0.6"/></g><g transform="translate(140 155)"><path d="M 0 -5 L 1 -1 L 5 0 L 1 1 L 0 5 L -1 1 L -5 0 L -1 -1 Z" fill="#D9A86E" stroke="none" opacity="0.85"/></g><g transform="translate(462 150)"><path d="M 0 -4 L 1 -1 L 4 0 L 1 1 L 0 4 L -1 1 L -4 0 L -1 -1 Z" fill="#C9A85E" stroke="none" opacity="0.85"/></g><text x="300.0" y="420" text-anchor="middle" font-family="Georgia, 'Times New Roman', serif" font-size="17" letter-spacing="5.5" fill="#F6E2CE" opacity="0.72">NEW BEGINNINGS</text><text x="300.0" y="490" text-anchor="middle" font-family="Georgia, serif" font-size="44" font-style="italic" fill="#F6E2CE">One Chapter Ends</text><text x="300.0" y="534" text-anchor="middle" font-family="Georgia, serif" font-size="20" fill="#F6E2CE" opacity="0.68">Another begins tonight</text><line x1="216.0" y1="572" x2="276.0" y2="572" stroke="#F6E2CE" stroke-width="1" opacity="0.5"/><circle cx="300.0" cy="572" r="3.6" fill="#F6E2CE" opacity="0.65"/><line x1="324.0" y1="572" x2="384.0" y2="572" stroke="#F6E2CE" stroke-width="1" opacity="0.5"/><text x="300.0" y="606" text-anchor="middle" font-family="Georgia, serif" font-size="18" letter-spacing="4" fill="#F6E2CE" opacity="0.6">TURN THE PAGE WITH US</text></svg>