<svg xmlns="http://www.w3.org/2000/svg" viewBox="0 0 600 800" width="600" height="800" role="img" aria-label="Rose Anniversary invitation template preview"><defs><linearGradient id="bg-rose-anniversary" x1="0" y1="0" x2="1" y2="1"><stop offset="0%" stop-color="#4A1E2E"/><stop offset="55%" stop-color="#8A3A4E"/><stop offset="100%" stop-color="#4A1E2E"/></linearGradient><radialGradient id="glow-rose-anniversary" cx="50%" cy="34%" r="62%"><stop offset="0%" stop-color="#FFFFFF" stop-opacity="0.42"/><stop offset="100%" stop-color="#FFFFFF" stop-opacity="0"/></radialGradient><linearGradient id="sheen-rose-anniversary" x1="0" y1="0" x2="1" y2="1"><stop offset="0%" stop-color="#FFFFFF" stop-opacity="0.20"/><stop offset="45%" stop-color="#FFFFFF" stop-opacity="0"/></linearGradient></defs><rect width="600" height="800" fill="url(#bg-rose-anniversary)"/><rect width="600" height="800" fill="url(#glow-rose-anniversary)"/><rect width="600" height="800" fill="url(#sheen-rose-anniversary)"/><g transform="translate(44.0 44.0) scale(1 1)" fill="none" stroke="#FCE0E4" stroke-width="1.6" opacity="0.42" stroke-linecap="round"><path d="M 0 46 V 8 Q 0 0 8 0 H 46"/><path d="M 14 40 V 20 Q 14 14 20 14 H 40"/><circle cx="9" cy="9" r="2.6" fill="#FCE0E4" stroke="none" opacity="0.8"/></g><g transform="translate(556.0 44.0) scale(-1 1)" fill="none" stroke="#FCE0E4" stroke-width="1.6" opacity="0.42" stroke-linecap="round"><path d="M 0 46 V 8 Q 0 0 8 0 H 46"/><path d="M 14 40 V 20 Q 14 14 20 14 H 40"/><circle cx="9" cy="9" r="2.6" fill="#FCE0E4" stroke="none" opacity="0.8"/></g><g transform="translate(44.0 756.0) scale(1 -1)" fill="none" stroke="#FCE0E4" stroke-width="1.6" opacity="0.42" stroke-linecap="round"><path d="M 0 46 V 8 Q 0 0 8 0 H 46"/><path d="M 14 40 V 20 Q 14 14 20 14 H 40"/><circle cx="9" cy="9" r="2.6" fill="#FCE0E4" stroke="none" opacity="0.8"/></g><g transform="translate(556.0 756.0) scale(-1 -1)" fill="none" stroke="#FCE0E4" stroke-width="1.6" opacity="0.42" stroke-linecap="round"><path d="M 0 46 V 8 Q 0 0 8 0 H 46"/><path d="M 14 40 V 20 Q 14 14 20 14 H 40"/><circle cx="9" cy="9" r="2.6" fill="#FCE0E4" stroke="none" opacity="0.8"/></g><path d="M 300 90 q -90 40 -90 110" fill="none" stroke="#FCE0E4" stroke-width="1.4" opacity="0.5"/><path d="M 300 90 q 90 40 90 110" fill="none" stroke="#FCE0E4" stroke-width="1.4" opacity="0.5"/><g transform="translate(180 120) scale(0.7 0.7)"><path d="M 0 -30 q 20 10 20 30 q 0 20 -20 30 q -20 -10 -20 -30 q 0 -20 20 -30 z" fill="#FCE0E4" opacity="0.9"/><path d="M 0 -30 q 0 30 0 60" fill="none" stroke="#FFF0F2" stroke-width="1.4" opacity="0.8"/><path d="M 0 -12 q 6 8 10 12 M 0 2 q 6 8 10 12 M 0 16 q 6 8 10 12" fill="none" stroke="#FFF0F2" stroke-width="1" opacity="0.7"/><path d="M 0 -12 q -6 8 -10 12 M 0 2 q -6 8 -10 12 M 0 16 q -6 8 -10 12" fill="none" stroke="#FFF0F2" stroke-width="1" opacity="0.7"/></g><g transform="translate(420 120) scale(-0.7 0.7)"><path d="M 0 -30 q 20 10 20 30 q 0 20 -20 30 q -20 -10 -20 -30 q 0 -20 20 -30 z" fill="#FCE0E4" opacity="0.9"/><path d="M 0 -30 q 0 30 0 60" fill="none" stroke="#FFF0F2" stroke-width="1.4" opacity="0.8"/><path d="M 0 -12 q 6 8 10 12 M 0 2 q 6 8 10 12 M 0 16 q 6 8 10 12" fill="none" stroke="#FFF0F2" stroke-width="1" opacity="0.7"/><path d="M 0 -12 q -6 8 -10 12 M 0 2 q -6 8 -10 12 M 0 16 q -6 8 -10 12" fill="none" stroke="#FFF0F2" stroke-width="1" opacity="0.7"/></g><g transform="translate(180 150) scale(0.55)"><circle cx="0" cy="0" r="30" fill="#FCE0E4" opacity="0.9"/><path d="M -6 6 q 10 12 18 4 q 10 -10 -2 -20 q -14 -6 -20 2 q -6 12 2 20 q 10 8 22 2 q 14 -8 12 -22 q -2 -14 -16 -18 q -18 -2 -26 10 q -8 16 4 28 q 14 12 30 6 q 18 -6 22 -24" fill="none" stroke="#FFF0F2" stroke-width="2.6" opacity="0.9"/></g><g transform="translate(420 150) scale(0.55)"><circle cx="0" cy="0" r="30" fill="#FCE0E4" opacity="0.9"/><path d="M -6 6 q 10 12 18 4 q 10 -10 -2 -20 q -14 -6 -20 2 q -6 12 2 20 q 10 8 22 2 q 14 -8 12 -22 q -2 -14 -16 -18 q -18 -2 -26 10 q -8 16 4 28 q 14 12 30 6 q 18 -6 22 -24" fill="none" stroke="#FFF0F2" stroke-width="2.6" opacity="0.9"/></g><g transform="translate(300 320) scale(2.4)"><circle cx="0" cy="0" r="30" fill="#FCE0E4" opacity="0.9"/><path d="M -6 6 q 10 12 18 4 q 10 -10 -2 -20 q -14 -6 -20 2 q -6 12 2 20 q 10 8 22 2 q 14 -8 12 -22 q -2 -14 -16 -18 q -18 -2 -26 10 q -8 16 4 28 q 14 12 30 6 q 18 -6 22 -24" fill="none" stroke="#FFF0F2" stroke-width="2.6" opacity="0.9"/></g><g transform="translate(200 430) scale(0.5)"><path d="M 0 -30 q 20 10 20 30 q 0 20 -20 30 q -20 -10 -20 -30 q 0 -20 20 -30 z" fill="#FCE0E4" opacity="0.9"/><path d="M 0 -30 q 0 30 0 60" fill="none" stroke="#FFF0F2" stroke-width="1.4" opacity="0.8"/><path d="M 0 -12 q 6 8 10 12 M 0 2 q 6 8 10 12 M 0 16 q 6 8 10 12" fill="none" stroke="#FFF0F2" stroke-width="1" opacity="0.7"/><path d="M 0 -12 q -6 8 -10 12 M 0 2 q -6 8 -10 12 M 0 16 q -6 8 -10 12" fill="none" stroke="#FFF0F2" stroke-width="1" opacity="0.7"/></g><g transform="translate(400 430) scale(-0.5 0.5)"><path d="M 0 -30 q 20 10 20 30 q 0 20 -20 30 q -20 -10 -20 -30 q 0 -20 20 -30 z" fill="#FCE0E4" opacity="0.9"/><path d="M 0 -30 q 0 30 0 60" fill="none" stroke="#FFF0F2" stroke-width="1.4" opacity="0.8"/><path d="M 0 -12 q 6 8 10 12 M 0 2 q 6 8 10 12 M 0 16 q 6 8 10 12" fill="none" stroke="#FFF0F2" stroke-width="1" opacity="0.7"/><path d="M 0 -12 q -6 8 -10 12 M 0 2 q -6 8 -10 12 M 0 16 q -6 8 -10 12" fill="none" stroke="#FFF0F2" stroke-width="1" opacity="0.7"/></g><text x="300.0" y="470" text-anchor="middle" font-family="Georgia, 'Times New Roman', serif" font-size="21" letter-spacing="7.5" fill="#FCE0E4" opacity="0.72">FIRST YEAR OF FOREVER</text><line x1="216.0" y1="494" x2="276.0" y2="494" stroke="#FCE0E4" stroke-width="1" opacity="0.5"/><circle cx="300.0" cy="494" r="3.6" fill="#FCE0E4" opacity="0.65"/><line x1="324.0" y1="494" x2="384.0" y2="494" stroke="#FCE0E4" stroke-width="1" opacity="0.5"/><text x="300.0" y="580" text-anchor="middle" font-family="Georgia, serif" font-size="56" font-style="italic" fill="#FCE0E4">Rose Anniversary</text><text x="300.0" y="636" text-anchor="middle" font-family="Georgia, serif" font-size="20" fill="#FCE0E4" opacity="0.68">Fresh As The First Bloom</text><g opacity="0.55"><line x1="230.0" y1="684" x2="370.0" y2="684" stroke="#FCE0E4" stroke-width="0.9"/></g><text x="300.0" y="722" text-anchor="middle" font-family="Georgia, serif" font-size="18" letter-spacing="4" fill="#FCE0E4" opacity="0.6">SAVE THE DATE</text></svg>