<svg xmlns="http://www.w3.org/2000/svg" viewBox="0 0 600 800" width="600" height="800" role="img" aria-label="Rose Gold Engagement invitation template preview"><defs><linearGradient id="bg-rose-gold-engagement" x1="0" y1="0" x2="1" y2="1"><stop offset="0%" stop-color="#FDF1EE"/><stop offset="55%" stop-color="#F8DCD6"/><stop offset="100%" stop-color="#FDF1EE"/></linearGradient><radialGradient id="glow-rose-gold-engagement" cx="50%" cy="34%" r="62%"><stop offset="0%" stop-color="#FFFFFF" stop-opacity="0.42"/><stop offset="100%" stop-color="#FFFFFF" stop-opacity="0"/></radialGradient><linearGradient id="sheen-rose-gold-engagement" x1="0" y1="0" x2="1" y2="1"><stop offset="0%" stop-color="#FFFFFF" stop-opacity="0.20"/><stop offset="45%" stop-color="#FFFFFF" stop-opacity="0"/></linearGradient></defs><rect width="600" height="800" fill="url(#bg-rose-gold-engagement)"/><rect width="600" height="800" fill="url(#glow-rose-gold-engagement)"/><rect width="600" height="800" fill="url(#sheen-rose-gold-engagement)"/><g transform="translate(44.0 44.0) scale(1 1)" fill="none" stroke="#5A2632" stroke-width="1.6" opacity="0.42" stroke-linecap="round"><path d="M 0 46 V 8 Q 0 0 8 0 H 46"/><path d="M 14 40 V 20 Q 14 14 20 14 H 40"/><circle cx="9" cy="9" r="2.6" fill="#5A2632" stroke="none" opacity="0.8"/></g><g transform="translate(556.0 44.0) scale(-1 1)" fill="none" stroke="#5A2632" stroke-width="1.6" opacity="0.42" stroke-linecap="round"><path d="M 0 46 V 8 Q 0 0 8 0 H 46"/><path d="M 14 40 V 20 Q 14 14 20 14 H 40"/><circle cx="9" cy="9" r="2.6" fill="#5A2632" stroke="none" opacity="0.8"/></g><g transform="translate(44.0 756.0) scale(1 -1)" fill="none" stroke="#5A2632" stroke-width="1.6" opacity="0.42" stroke-linecap="round"><path d="M 0 46 V 8 Q 0 0 8 0 H 46"/><path d="M 14 40 V 20 Q 14 14 20 14 H 40"/><circle cx="9" cy="9" r="2.6" fill="#5A2632" stroke="none" opacity="0.8"/></g><g transform="translate(556.0 756.0) scale(-1 -1)" fill="none" stroke="#5A2632" stroke-width="1.6" opacity="0.42" stroke-linecap="round"><path d="M 0 46 V 8 Q 0 0 8 0 H 46"/><path d="M 14 40 V 20 Q 14 14 20 14 H 40"/><circle cx="9" cy="9" r="2.6" fill="#5A2632" stroke="none" opacity="0.8"/></g><path d="M 110 754 V 250 A 190 190 0 0 1 490 250 V 754 Z" fill="none" stroke="#5A2632" stroke-width="1.6" opacity="0.4"/><path d="M 126 754 V 250 A 174 174 0 0 1 474 250 V 754 Z" fill="none" stroke="#5A2632" stroke-width="0.7" opacity="0.18"/><path d="M 110 200 q 190 -46 380 0" fill="none" stroke="#5A2632" stroke-width="1.4" opacity="0.35"/><circle cx="300" cy="178" r="5" fill="#5A2632" opacity="0.5"/><path d="M 176 224 q -8 10 0 20 q 8 -10 0 -20 z" fill="#5A2632" opacity="0.6"/><path d="M 424 224 q 8 10 0 20 q -8 -10 0 -20 z" fill="#5A2632" opacity="0.6"/><g transform="translate(300 330) scale(2.2)"><path d="M 0 24 q -30 -22 -30 -8 q 0 -22 30 6 q 30 -28 30 -6 q 0 -14 -30 8 z" fill="#5A2632"/></g><line x1="170" y1="420" x2="240" y2="420" stroke="#5A2632" stroke-width="1" opacity="0.4"/><line x1="360" y1="420" x2="430" y2="420" stroke="#5A2632" opacity="0.4"/><text x="300.0" y="470" text-anchor="middle" font-family="Georgia, 'Times New Roman', serif" font-size="21" letter-spacing="7.5" fill="#5A2632" opacity="0.72">CELEBRATING OUR LOVE</text><line x1="216.0" y1="494" x2="276.0" y2="494" stroke="#5A2632" stroke-width="1" opacity="0.5"/><circle cx="300.0" cy="494" r="3.6" fill="#5A2632" opacity="0.65"/><line x1="324.0" y1="494" x2="384.0" y2="494" stroke="#5A2632" stroke-width="1" opacity="0.5"/><text x="300.0" y="580" text-anchor="middle" font-family="Georgia, serif" font-size="56" font-style="italic" fill="#5A2632">Rose Gold Engagement</text><text x="300.0" y="636" text-anchor="middle" font-family="Georgia, serif" font-size="20" fill="#5A2632" opacity="0.68">Soft Glow, Golden Hour</text><g opacity="0.55"><line x1="230.0" y1="684" x2="370.0" y2="684" stroke="#5A2632" stroke-width="0.9"/></g><text x="300.0" y="722" text-anchor="middle" font-family="Georgia, serif" font-size="18" letter-spacing="4" fill="#5A2632" opacity="0.6">SAVE THE DATE</text></svg>