<svg xmlns="http://www.w3.org/2000/svg" viewBox="0 0 600 800" width="600" height="800" role="img" aria-label="Rosh Hashanah invitation template preview"><defs><linearGradient id="bg-rosh-hashanah" x1="0" y1="0" x2="1" y2="1"><stop offset="0%" stop-color="#2E1A0A"/><stop offset="55%" stop-color="#7A4A1A"/><stop offset="100%" stop-color="#2E1A0A"/></linearGradient><radialGradient id="glow-rosh-hashanah" cx="50%" cy="34%" r="62%"><stop offset="0%" stop-color="#FFFFFF" stop-opacity="0.42"/><stop offset="100%" stop-color="#FFFFFF" stop-opacity="0"/></radialGradient><linearGradient id="sheen-rosh-hashanah" x1="0" y1="0" x2="1" y2="1"><stop offset="0%" stop-color="#FFFFFF" stop-opacity="0.20"/><stop offset="45%" stop-color="#FFFFFF" stop-opacity="0"/></linearGradient></defs><rect width="600" height="800" fill="url(#bg-rosh-hashanah)"/><rect width="600" height="800" fill="url(#glow-rosh-hashanah)"/><rect width="600" height="800" fill="url(#sheen-rosh-hashanah)"/><g transform="translate(44.0 44.0) scale(1 1)" fill="none" stroke="#F6E0B8" stroke-width="1.6" opacity="0.42" stroke-linecap="round"><path d="M 0 46 V 8 Q 0 0 8 0 H 46"/><path d="M 14 40 V 20 Q 14 14 20 14 H 40"/><circle cx="9" cy="9" r="2.6" fill="#F6E0B8" stroke="none" opacity="0.8"/></g><g transform="translate(556.0 44.0) scale(-1 1)" fill="none" stroke="#F6E0B8" stroke-width="1.6" opacity="0.42" stroke-linecap="round"><path d="M 0 46 V 8 Q 0 0 8 0 H 46"/><path d="M 14 40 V 20 Q 14 14 20 14 H 40"/><circle cx="9" cy="9" r="2.6" fill="#F6E0B8" stroke="none" opacity="0.8"/></g><g transform="translate(44.0 756.0) scale(1 -1)" fill="none" stroke="#F6E0B8" stroke-width="1.6" opacity="0.42" stroke-linecap="round"><path d="M 0 46 V 8 Q 0 0 8 0 H 46"/><path d="M 14 40 V 20 Q 14 14 20 14 H 40"/><circle cx="9" cy="9" r="2.6" fill="#F6E0B8" stroke="none" opacity="0.8"/></g><g transform="translate(556.0 756.0) scale(-1 -1)" fill="none" stroke="#F6E0B8" stroke-width="1.6" opacity="0.42" stroke-linecap="round"><path d="M 0 46 V 8 Q 0 0 8 0 H 46"/><path d="M 14 40 V 20 Q 14 14 20 14 H 40"/><circle cx="9" cy="9" r="2.6" fill="#F6E0B8" stroke="none" opacity="0.8"/></g><path d="M 46 754 V 250 A 254 254 0 0 1 554 250 V 754 Z" fill="none" stroke="#F6E0B8" stroke-width="1.2" opacity="0.32"/><path d="M 70 754 V 250 A 230 230 0 0 1 530 250 V 754 Z" fill="none" stroke="#F6E0B8" stroke-width="0.7" opacity="0.14"/><circle cx="450.0" cy="296.0" r="1.6" fill="#F6E0B8" opacity="0.3"/><circle cx="444.9" cy="334.8" r="1.6" fill="#F6E0B8" opacity="0.3"/><circle cx="429.9" cy="371.0" r="1.6" fill="#F6E0B8" opacity="0.3"/><circle cx="406.1" cy="402.1" r="1.6" fill="#F6E0B8" opacity="0.3"/><circle cx="375.0" cy="425.9" r="1.6" fill="#F6E0B8" opacity="0.3"/><circle cx="338.8" cy="440.9" r="1.6" fill="#F6E0B8" opacity="0.3"/><circle cx="300.0" cy="446.0" r="1.6" fill="#F6E0B8" opacity="0.3"/><circle cx="261.2" cy="440.9" r="1.6" fill="#F6E0B8" opacity="0.3"/><circle cx="225.0" cy="425.9" r="1.6" fill="#F6E0B8" opacity="0.3"/><circle cx="193.9" cy="402.1" r="1.6" fill="#F6E0B8" opacity="0.3"/><circle cx="170.1" cy="371.0" r="1.6" fill="#F6E0B8" opacity="0.3"/><circle cx="155.1" cy="334.8" r="1.6" fill="#F6E0B8" opacity="0.3"/><circle cx="150.0" cy="296.0" r="1.6" fill="#F6E0B8" opacity="0.3"/><circle cx="155.1" cy="257.2" r="1.6" fill="#F6E0B8" opacity="0.3"/><circle cx="170.1" cy="221.0" r="1.6" fill="#F6E0B8" opacity="0.3"/><circle cx="193.9" cy="189.9" r="1.6" fill="#F6E0B8" opacity="0.3"/><circle cx="225.0" cy="166.1" r="1.6" fill="#F6E0B8" opacity="0.3"/><circle cx="261.2" cy="151.1" r="1.6" fill="#F6E0B8" opacity="0.3"/><circle cx="300.0" cy="146.0" r="1.6" fill="#F6E0B8" opacity="0.3"/><circle cx="338.8" cy="151.1" r="1.6" fill="#F6E0B8" opacity="0.3"/><circle cx="375.0" cy="166.1" r="1.6" fill="#F6E0B8" opacity="0.3"/><circle cx="406.1" cy="189.9" r="1.6" fill="#F6E0B8" opacity="0.3"/><circle cx="429.9" cy="221.0" r="1.6" fill="#F6E0B8" opacity="0.3"/><circle cx="444.9" cy="257.2" r="1.6" fill="#F6E0B8" opacity="0.3"/><g transform="translate(300 318) scale(2.4)"><circle cx="0" cy="0" r="26" fill="#F6E0B8" opacity="0.95"/><path d="M -26 0 q 0 -30 26 -30 q 26 0 26 30 z" fill="#F6E0B8" opacity="0.5"/><path d="M 0 -30 q 0 -10 8 -14 q -4 10 -8 14 z" fill="#F6E0B8"/><path d="M -8 -10 q 6 4 10 12 M 8 -12 q -4 8 -8 16 M 0 -4 q 4 6 6 12" fill="none" stroke="#DFA868" stroke-width="1.6" opacity="0.9"/><circle cx="0" cy="14" r="2.6" fill="#DFA868" opacity="0.9"/><circle cx="-8" cy="6" r="2.2" fill="#DFA868" opacity="0.8"/><circle cx="8" cy="4" r="2.2" fill="#DFA868" opacity="0.8"/></g><g transform="translate(214 408)"><path d="M 0 -8.0 q 2.8 2.8 8.0 4.8 q -2.8 2.8 0 8.0 q -2.8 -2.8 -8.0 0 q -2.8 -2.8 0 -8.0 q 2.8 -2.8 8.0 -4.8 z" fill="#F6E0B8" opacity="0.9"/></g><g transform="translate(386 408)"><path d="M 0 -8.0 q 2.8 2.8 8.0 4.8 q -2.8 2.8 0 8.0 q -2.8 -2.8 -8.0 0 q -2.8 -2.8 0 -8.0 q 2.8 -2.8 8.0 -4.8 z" fill="#F6E0B8" opacity="0.9"/></g><line x1="150" y1="420" x2="240" y2="420" stroke="#F6E0B8" stroke-width="1" opacity="0.4"/><line x1="360" y1="420" x2="450" y2="420" stroke="#F6E0B8" stroke-width="1" opacity="0.4"/><text x="300.0" y="470" text-anchor="middle" font-family="Georgia, 'Times New Roman', serif" font-size="21" letter-spacing="7.5" fill="#F6E0B8" opacity="0.72">SHANA TOVA</text><line x1="216.0" y1="494" x2="276.0" y2="494" stroke="#F6E0B8" stroke-width="1" opacity="0.5"/><circle cx="300.0" cy="494" r="3.6" fill="#F6E0B8" opacity="0.65"/><line x1="324.0" y1="494" x2="384.0" y2="494" stroke="#F6E0B8" stroke-width="1" opacity="0.5"/><text x="300.0" y="580" text-anchor="middle" font-family="Georgia, serif" font-size="56" font-style="italic" fill="#F6E0B8">Rosh Hashanah</text><text x="300.0" y="636" text-anchor="middle" font-family="Georgia, serif" font-size="20" fill="#F6E0B8" opacity="0.68">A Sweet New Year</text><g opacity="0.55"><line x1="230.0" y1="684" x2="370.0" y2="684" stroke="#F6E0B8" stroke-width="0.9"/></g><text x="300.0" y="722" text-anchor="middle" font-family="Georgia, serif" font-size="18" letter-spacing="4" fill="#F6E0B8" opacity="0.6">SAVE THE DATE</text></svg>