<svg xmlns="http://www.w3.org/2000/svg" xmlns:xlink="http://www.w3.org/1999/xlink" viewBox="0 0 600 800" width="600" height="800" role="img" aria-label="Royal Durbar — wedding invitation template preview"><defs><g id="mo"><path d="M -52 -30 L -40 -70 L -18 -44 L 0 -84 L 18 -44 L 40 -70 L 52 -30 Z" fill="none" stroke="#DFB055" stroke-width="1.7" opacity="0.96"/><circle cx="-40" cy="-72" r="4.4" fill="#DFB055" opacity="0.85"/><circle cx="0" cy="-76" r="4.4" fill="#DFB055" opacity="0.85"/><circle cx="40" cy="-72" r="4.4" fill="#DFB055" opacity="0.85"/><rect x="-56" y="-30" width="112" height="12" fill="none" stroke="#DFB055" stroke-width="1.4" rx="3" opacity="0.94"/><circle cx="-40" cy="-24" r="2.6" fill="#DFB055" opacity="0.71"/><circle cx="-20" cy="-24" r="2.6" fill="#DFB055" opacity="0.71"/><circle cx="0" cy="-24" r="2.6" fill="#DFB055" opacity="0.71"/><circle cx="20" cy="-24" r="2.6" fill="#DFB055" opacity="0.71"/><circle cx="40" cy="-24" r="2.6" fill="#DFB055" opacity="0.71"/><path d="M 0 -4 Q 40 -4 40 32 Q 40 72 0 88 Q -40 72 -40 32 Q -40 -4 0 -4 Z" fill="none" stroke="#DFB055" stroke-width="1.5" opacity="0.85"/><path d="M 6 34 Q 17.04 44.08 30 34 Q 17.04 23.92 6 34 Z" fill="none" stroke="#DFB055" stroke-width="1.2" opacity="0.77"/><path d="M 4.24 38.24 Q 4.92 53.18 21.21 55.21 Q 19.18 38.92 4.24 38.24 Z" fill="none" stroke="#DFB055" stroke-width="1.2" opacity="0.77"/><path d="M 0 40 Q -10.08 51.04 0 64 Q 10.08 51.04 0 40 Z" fill="none" stroke="#DFB055" stroke-width="1.2" opacity="0.77"/><path d="M -4.24 38.24 Q -19.18 38.92 -21.21 55.21 Q -4.92 53.18 -4.24 38.24 Z" fill="none" stroke="#DFB055" stroke-width="1.2" opacity="0.77"/><path d="M -6 34 Q -17.04 23.92 -30 34 Q -17.04 44.08 -6 34 Z" fill="none" stroke="#DFB055" stroke-width="1.2" opacity="0.77"/><path d="M -4.24 29.76 Q -4.92 14.82 -21.21 12.79 Q -19.18 29.08 -4.24 29.76 Z" fill="none" stroke="#DFB055" stroke-width="1.2" opacity="0.77"/><path d="M 0 28 Q 10.08 16.96 0 4 Q -10.08 16.96 0 28 Z" fill="none" stroke="#DFB055" stroke-width="1.2" opacity="0.77"/><path d="M 4.24 29.76 Q 19.18 29.08 21.21 12.79 Q 4.92 14.82 4.24 29.76 Z" fill="none" stroke="#DFB055" stroke-width="1.2" opacity="0.77"/><circle cx="0" cy="34" r="5" fill="#DFB055" opacity="0.94"/><path d="M -46 20 Q -78 -8 -66 -30" fill="none" stroke="#DFB055" stroke-width="1.2" opacity="0.65"/><path d="M -46 48 Q -76 74 -62 86" fill="none" stroke="#DFB055" stroke-width="1.2" opacity="0.65"/><path d="M 46 20 Q 78 -8 66 -30" fill="none" stroke="#DFB055" stroke-width="1.2" opacity="0.65"/><path d="M 46 48 Q 76 74 62 86" fill="none" stroke="#DFB055" stroke-width="1.2" opacity="0.65"/></g></defs><defs><linearGradient id="bg-royal-durbar" x1="0" y1="0" x2="1" y2="1"><stop offset="0%" stop-color="#2A0F3E"/><stop offset="55%" stop-color="#54206E"/><stop offset="100%" stop-color="#2A0F3E"/></linearGradient><radialGradient id="gl-royal-durbar" cx="50%" cy="34%" r="62%"><stop offset="0%" stop-color="#FFFFFF" stop-opacity="0.16"/><stop offset="100%" stop-color="#FFFFFF" stop-opacity="0"/></radialGradient><linearGradient id="sh-royal-durbar" x1="0" y1="0" x2="1" y2="1"><stop offset="0%" stop-color="#FFFFFF" stop-opacity="0.09"/><stop offset="45%" stop-color="#FFFFFF" stop-opacity="0"/></linearGradient></defs><rect x="0" y="0" width="600" height="800" fill="url(#bg-royal-durbar)"/><rect x="0" y="0" width="600" height="800" fill="url(#gl-royal-durbar)"/><rect x="0" y="0" width="600" height="800" fill="url(#sh-royal-durbar)"/><g opacity="0.9"><use href="#mo" xlink:href="#mo" transform="translate(58 58) scale(0.36)"/><use href="#mo" xlink:href="#mo" transform="translate(139 58) scale(0.36)"/><use href="#mo" xlink:href="#mo" transform="translate(220 58) scale(0.36)"/><use href="#mo" xlink:href="#mo" transform="translate(301 58) scale(0.36)"/><use href="#mo" xlink:href="#mo" transform="translate(382 58) scale(0.36)"/><use href="#mo" xlink:href="#mo" transform="translate(463 58) scale(0.36)"/><use href="#mo" xlink:href="#mo" transform="translate(544 58) scale(0.36)"/><use href="#mo" xlink:href="#mo" transform="translate(58 742) scale(0.36)"/><use href="#mo" xlink:href="#mo" transform="translate(139 742) scale(0.36)"/><use href="#mo" xlink:href="#mo" transform="translate(220 742) scale(0.36)"/><use href="#mo" xlink:href="#mo" transform="translate(301 742) scale(0.36)"/><use href="#mo" xlink:href="#mo" transform="translate(382 742) scale(0.36)"/><use href="#mo" xlink:href="#mo" transform="translate(463 742) scale(0.36)"/><use href="#mo" xlink:href="#mo" transform="translate(544 742) scale(0.36)"/><use href="#mo" xlink:href="#mo" transform="translate(58 148) scale(0.36)"/><use href="#mo" xlink:href="#mo" transform="translate(58 226) scale(0.36)"/><use href="#mo" xlink:href="#mo" transform="translate(58 304) scale(0.36)"/><use href="#mo" xlink:href="#mo" transform="translate(58 382) scale(0.36)"/><use href="#mo" xlink:href="#mo" transform="translate(58 460) scale(0.36)"/><use href="#mo" xlink:href="#mo" transform="translate(58 538) scale(0.36)"/><use href="#mo" xlink:href="#mo" transform="translate(58 616) scale(0.36)"/><use href="#mo" xlink:href="#mo" transform="translate(58 694) scale(0.36)"/><use href="#mo" xlink:href="#mo" transform="translate(542 148) scale(0.36)"/><use href="#mo" xlink:href="#mo" transform="translate(542 226) scale(0.36)"/><use href="#mo" xlink:href="#mo" transform="translate(542 304) scale(0.36)"/><use href="#mo" xlink:href="#mo" transform="translate(542 382) scale(0.36)"/><use href="#mo" xlink:href="#mo" transform="translate(542 460) scale(0.36)"/><use href="#mo" xlink:href="#mo" transform="translate(542 538) scale(0.36)"/><use href="#mo" xlink:href="#mo" transform="translate(542 616) scale(0.36)"/><use href="#mo" xlink:href="#mo" transform="translate(542 694) scale(0.36)"/></g><rect x="96" y="100" width="408" height="600" fill="none" stroke="#DFB055" stroke-width="1.4" opacity="0.42"/><rect x="104" y="108" width="392" height="584" fill="none" stroke="#DFB055" stroke-width="0.7" opacity="0.24"/><use href="#mo" xlink:href="#mo" transform="translate(300 244) scale(0.82)"/><text x="300" y="374" text-anchor="middle" font-family="Georgia, 'Times New Roman', serif" font-size="16" letter-spacing="6" fill="#DFB055" opacity="0.72">BY ROYAL INVITATION</text><text x="300" y="452" text-anchor="middle" font-family="Copperplate, 'Copperplate Gothic Light', 'Trajan Pro', Georgia, serif" font-size="46" fill="#F6DCA8">Royal Durbar</text><text x="300" y="500" text-anchor="middle" font-family="Georgia, 'Times New Roman', serif" font-size="18" fill="#F6DCA8" opacity="0.68">Groom &amp; Bride</text><line x1="230" y1="542" x2="276" y2="542" stroke="#DFB055" stroke-width="1" opacity="0.5"/><circle cx="300" cy="542" r="2.6" fill="#DFB055" opacity="0.65"/><line x1="324" y1="542" x2="370" y2="542" stroke="#DFB055" stroke-width="1" opacity="0.5"/><text x="300" y="618" text-anchor="middle" font-family="Georgia, 'Times New Roman', serif" font-size="15" letter-spacing="4" fill="#F6DCA8" opacity="0.6">BLACK TIE</text></svg>