<svg xmlns="http://www.w3.org/2000/svg" xmlns:xlink="http://www.w3.org/1999/xlink" viewBox="0 0 600 800" width="600" height="800" role="img" aria-label="Sindhi Ajrak — wedding invitation template preview"><defs><g id="mo"><rect x="-94" y="-94" width="60" height="60" fill="none" stroke="#D98A5E" stroke-width="1.1" opacity="0.73"/><path d="M -60 -64 Q -50.34 -60.43 -39 -64 Q -50.34 -67.57 -60 -64 Z" fill="none" stroke="#D98A5E" stroke-width="1.2" opacity="0.88"/><path d="M -61.17 -61.17 Q -56.87 -51.82 -46.32 -46.32 Q -51.82 -56.87 -61.17 -61.17 Z" fill="none" stroke="#D98A5E" stroke-width="1.2" opacity="0.88"/><path d="M -64 -60 Q -67.57 -50.34 -64 -39 Q -60.43 -50.34 -64 -60 Z" fill="none" stroke="#D98A5E" stroke-width="1.2" opacity="0.88"/><path d="M -66.83 -61.17 Q -76.18 -56.87 -81.68 -46.32 Q -71.13 -51.82 -66.83 -61.17 Z" fill="none" stroke="#D98A5E" stroke-width="1.2" opacity="0.88"/><path d="M -68 -64 Q -77.66 -67.57 -89 -64 Q -77.66 -60.43 -68 -64 Z" fill="none" stroke="#D98A5E" stroke-width="1.2" opacity="0.88"/><path d="M -66.83 -66.83 Q -71.13 -76.18 -81.68 -81.68 Q -76.18 -71.13 -66.83 -66.83 Z" fill="none" stroke="#D98A5E" stroke-width="1.2" opacity="0.88"/><path d="M -64 -68 Q -60.43 -77.66 -64 -89 Q -67.57 -77.66 -64 -68 Z" fill="none" stroke="#D98A5E" stroke-width="1.2" opacity="0.88"/><path d="M -61.17 -66.83 Q -51.82 -71.13 -46.32 -81.68 Q -56.87 -76.18 -61.17 -66.83 Z" fill="none" stroke="#D98A5E" stroke-width="1.2" opacity="0.88"/><circle cx="-64" cy="-64" r="5" fill="#D98A5E" opacity="0.96"/><circle cx="-94" cy="-94" r="2.2" fill="#D98A5E" opacity="0.7"/><circle cx="-94" cy="-34" r="2.2" fill="#D98A5E" opacity="0.7"/><circle cx="-34" cy="-94" r="2.2" fill="#D98A5E" opacity="0.7"/><circle cx="-34" cy="-34" r="2.2" fill="#D98A5E" opacity="0.7"/><rect x="-94" y="-30" width="60" height="60" fill="none" stroke="#D98A5E" stroke-width="1.1" opacity="0.73"/><g transform="rotate(45 -64 0)"><rect x="-79" y="-15" width="30" height="30" fill="none" stroke="#D98A5E" stroke-width="1.1" opacity="0.88"/></g><rect x="-75" y="-11" width="22" height="22" fill="none" stroke="#D98A5E" stroke-width="0.9" opacity="0.63"/><circle cx="-64" cy="0" r="3.4" fill="#D98A5E" opacity="0.88"/><circle cx="-94" cy="-30" r="2.2" fill="#D98A5E" opacity="0.7"/><circle cx="-94" cy="30" r="2.2" fill="#D98A5E" opacity="0.7"/><circle cx="-34" cy="-30" r="2.2" fill="#D98A5E" opacity="0.7"/><circle cx="-34" cy="30" r="2.2" fill="#D98A5E" opacity="0.7"/><rect x="-94" y="34" width="60" height="60" fill="none" stroke="#D98A5E" stroke-width="1.1" opacity="0.73"/><path d="M -60 64 Q -50.34 67.57 -39 64 Q -50.34 60.43 -60 64 Z" fill="none" stroke="#D98A5E" stroke-width="1.2" opacity="0.88"/><path d="M -61.17 66.83 Q -56.87 76.18 -46.32 81.68 Q -51.82 71.13 -61.17 66.83 Z" fill="none" stroke="#D98A5E" stroke-width="1.2" opacity="0.88"/><path d="M -64 68 Q -67.57 77.66 -64 89 Q -60.43 77.66 -64 68 Z" fill="none" stroke="#D98A5E" stroke-width="1.2" opacity="0.88"/><path d="M -66.83 66.83 Q -76.18 71.13 -81.68 81.68 Q -71.13 76.18 -66.83 66.83 Z" fill="none" stroke="#D98A5E" stroke-width="1.2" opacity="0.88"/><path d="M -68 64 Q -77.66 60.43 -89 64 Q -77.66 67.57 -68 64 Z" fill="none" stroke="#D98A5E" stroke-width="1.2" opacity="0.88"/><path d="M -66.83 61.17 Q -71.13 51.82 -81.68 46.32 Q -76.18 56.87 -66.83 61.17 Z" fill="none" stroke="#D98A5E" stroke-width="1.2" opacity="0.88"/><path d="M -64 60 Q -60.43 50.34 -64 39 Q -67.57 50.34 -64 60 Z" fill="none" stroke="#D98A5E" stroke-width="1.2" opacity="0.88"/><path d="M -61.17 61.17 Q -51.82 56.87 -46.32 46.32 Q -56.87 51.82 -61.17 61.17 Z" fill="none" stroke="#D98A5E" stroke-width="1.2" opacity="0.88"/><circle cx="-64" cy="64" r="5" fill="#D98A5E" opacity="0.96"/><circle cx="-94" cy="34" r="2.2" fill="#D98A5E" opacity="0.7"/><circle cx="-94" cy="94" r="2.2" fill="#D98A5E" opacity="0.7"/><circle cx="-34" cy="34" r="2.2" fill="#D98A5E" opacity="0.7"/><circle cx="-34" cy="94" r="2.2" fill="#D98A5E" opacity="0.7"/><rect x="-30" y="-94" width="60" height="60" fill="none" stroke="#D98A5E" stroke-width="1.1" opacity="0.73"/><g transform="rotate(45 0 -64)"><rect x="-15" y="-79" width="30" height="30" fill="none" stroke="#D98A5E" stroke-width="1.1" opacity="0.88"/></g><rect x="-11" y="-75" width="22" height="22" fill="none" stroke="#D98A5E" stroke-width="0.9" opacity="0.63"/><circle cx="0" cy="-64" r="3.4" fill="#D98A5E" opacity="0.88"/><circle cx="-30" cy="-94" r="2.2" fill="#D98A5E" opacity="0.7"/><circle cx="-30" cy="-34" r="2.2" fill="#D98A5E" opacity="0.7"/><circle cx="30" cy="-94" r="2.2" fill="#D98A5E" opacity="0.7"/><circle cx="30" cy="-34" r="2.2" fill="#D98A5E" opacity="0.7"/><rect x="-30" y="-30" width="60" height="60" fill="none" stroke="#D98A5E" stroke-width="1.1" opacity="0.73"/><path d="M 4 0 Q 13.66 3.57 25 0 Q 13.66 -3.57 4 0 Z" fill="none" stroke="#D98A5E" stroke-width="1.2" opacity="0.88"/><path d="M 2.83 2.83 Q 7.13 12.18 17.68 17.68 Q 12.18 7.13 2.83 2.83 Z" fill="none" stroke="#D98A5E" stroke-width="1.2" opacity="0.88"/><path d="M 0 4 Q -3.57 13.66 0 25 Q 3.57 13.66 0 4 Z" fill="none" stroke="#D98A5E" stroke-width="1.2" opacity="0.88"/><path d="M -2.83 2.83 Q -12.18 7.13 -17.68 17.68 Q -7.13 12.18 -2.83 2.83 Z" fill="none" stroke="#D98A5E" stroke-width="1.2" opacity="0.88"/><path d="M -4 0 Q -13.66 -3.57 -25 0 Q -13.66 3.57 -4 0 Z" fill="none" stroke="#D98A5E" stroke-width="1.2" opacity="0.88"/><path d="M -2.83 -2.83 Q -7.13 -12.18 -17.68 -17.68 Q -12.18 -7.13 -2.83 -2.83 Z" fill="none" stroke="#D98A5E" stroke-width="1.2" opacity="0.88"/><path d="M 0 -4 Q 3.57 -13.66 0 -25 Q -3.57 -13.66 0 -4 Z" fill="none" stroke="#D98A5E" stroke-width="1.2" opacity="0.88"/><path d="M 2.83 -2.83 Q 12.18 -7.13 17.68 -17.68 Q 7.13 -12.18 2.83 -2.83 Z" fill="none" stroke="#D98A5E" stroke-width="1.2" opacity="0.88"/><circle cx="0" cy="0" r="5" fill="#D98A5E" opacity="0.96"/><circle cx="-30" cy="-30" r="2.2" fill="#D98A5E" opacity="0.7"/><circle cx="-30" cy="30" r="2.2" fill="#D98A5E" opacity="0.7"/><circle cx="30" cy="-30" r="2.2" fill="#D98A5E" opacity="0.7"/><circle cx="30" cy="30" r="2.2" fill="#D98A5E" opacity="0.7"/><rect x="-30" y="34" width="60" height="60" fill="none" stroke="#D98A5E" stroke-width="1.1" opacity="0.73"/><g transform="rotate(45 0 64)"><rect x="-15" y="49" width="30" height="30" fill="none" stroke="#D98A5E" stroke-width="1.1" opacity="0.88"/></g><rect x="-11" y="53" width="22" height="22" fill="none" stroke="#D98A5E" stroke-width="0.9" opacity="0.63"/><circle cx="0" cy="64" r="3.4" fill="#D98A5E" opacity="0.88"/><circle cx="-30" cy="34" r="2.2" fill="#D98A5E" opacity="0.7"/><circle cx="-30" cy="94" r="2.2" fill="#D98A5E" opacity="0.7"/><circle cx="30" cy="34" r="2.2" fill="#D98A5E" opacity="0.7"/><circle cx="30" cy="94" r="2.2" fill="#D98A5E" opacity="0.7"/><rect x="34" y="-94" width="60" height="60" fill="none" stroke="#D98A5E" stroke-width="1.1" opacity="0.73"/><path d="M 68 -64 Q 77.66 -60.43 89 -64 Q 77.66 -67.57 68 -64 Z" fill="none" stroke="#D98A5E" stroke-width="1.2" opacity="0.88"/><path d="M 66.83 -61.17 Q 71.13 -51.82 81.68 -46.32 Q 76.18 -56.87 66.83 -61.17 Z" fill="none" stroke="#D98A5E" stroke-width="1.2" opacity="0.88"/><path d="M 64 -60 Q 60.43 -50.34 64 -39 Q 67.57 -50.34 64 -60 Z" fill="none" stroke="#D98A5E" stroke-width="1.2" opacity="0.88"/><path d="M 61.17 -61.17 Q 51.82 -56.87 46.32 -46.32 Q 56.87 -51.82 61.17 -61.17 Z" fill="none" stroke="#D98A5E" stroke-width="1.2" opacity="0.88"/><path d="M 60 -64 Q 50.34 -67.57 39 -64 Q 50.34 -60.43 60 -64 Z" fill="none" stroke="#D98A5E" stroke-width="1.2" opacity="0.88"/><path d="M 61.17 -66.83 Q 56.87 -76.18 46.32 -81.68 Q 51.82 -71.13 61.17 -66.83 Z" fill="none" stroke="#D98A5E" stroke-width="1.2" opacity="0.88"/><path d="M 64 -68 Q 67.57 -77.66 64 -89 Q 60.43 -77.66 64 -68 Z" fill="none" stroke="#D98A5E" stroke-width="1.2" opacity="0.88"/><path d="M 66.83 -66.83 Q 76.18 -71.13 81.68 -81.68 Q 71.13 -76.18 66.83 -66.83 Z" fill="none" stroke="#D98A5E" stroke-width="1.2" opacity="0.88"/><circle cx="64" cy="-64" r="5" fill="#D98A5E" opacity="0.96"/><circle cx="34" cy="-94" r="2.2" fill="#D98A5E" opacity="0.7"/><circle cx="34" cy="-34" r="2.2" fill="#D98A5E" opacity="0.7"/><circle cx="94" cy="-94" r="2.2" fill="#D98A5E" opacity="0.7"/><circle cx="94" cy="-34" r="2.2" fill="#D98A5E" opacity="0.7"/><rect x="34" y="-30" width="60" height="60" fill="none" stroke="#D98A5E" stroke-width="1.1" opacity="0.73"/><g transform="rotate(45 64 0)"><rect x="49" y="-15" width="30" height="30" fill="none" stroke="#D98A5E" stroke-width="1.1" opacity="0.88"/></g><rect x="53" y="-11" width="22" height="22" fill="none" stroke="#D98A5E" stroke-width="0.9" opacity="0.63"/><circle cx="64" cy="0" r="3.4" fill="#D98A5E" opacity="0.88"/><circle cx="34" cy="-30" r="2.2" fill="#D98A5E" opacity="0.7"/><circle cx="34" cy="30" r="2.2" fill="#D98A5E" opacity="0.7"/><circle cx="94" cy="-30" r="2.2" fill="#D98A5E" opacity="0.7"/><circle cx="94" cy="30" r="2.2" fill="#D98A5E" opacity="0.7"/><rect x="34" y="34" width="60" height="60" fill="none" stroke="#D98A5E" stroke-width="1.1" opacity="0.73"/><path d="M 68 64 Q 77.66 67.57 89 64 Q 77.66 60.43 68 64 Z" fill="none" stroke="#D98A5E" stroke-width="1.2" opacity="0.88"/><path d="M 66.83 66.83 Q 71.13 76.18 81.68 81.68 Q 76.18 71.13 66.83 66.83 Z" fill="none" stroke="#D98A5E" stroke-width="1.2" opacity="0.88"/><path d="M 64 68 Q 60.43 77.66 64 89 Q 67.57 77.66 64 68 Z" fill="none" stroke="#D98A5E" stroke-width="1.2" opacity="0.88"/><path d="M 61.17 66.83 Q 51.82 71.13 46.32 81.68 Q 56.87 76.18 61.17 66.83 Z" fill="none" stroke="#D98A5E" stroke-width="1.2" opacity="0.88"/><path d="M 60 64 Q 50.34 60.43 39 64 Q 50.34 67.57 60 64 Z" fill="none" stroke="#D98A5E" stroke-width="1.2" opacity="0.88"/><path d="M 61.17 61.17 Q 56.87 51.82 46.32 46.32 Q 51.82 56.87 61.17 61.17 Z" fill="none" stroke="#D98A5E" stroke-width="1.2" opacity="0.88"/><path d="M 64 60 Q 67.57 50.34 64 39 Q 60.43 50.34 64 60 Z" fill="none" stroke="#D98A5E" stroke-width="1.2" opacity="0.88"/><path d="M 66.83 61.17 Q 76.18 56.87 81.68 46.32 Q 71.13 51.82 66.83 61.17 Z" fill="none" stroke="#D98A5E" stroke-width="1.2" opacity="0.88"/><circle cx="64" cy="64" r="5" fill="#D98A5E" opacity="0.96"/><circle cx="34" cy="34" r="2.2" fill="#D98A5E" opacity="0.7"/><circle cx="34" cy="94" r="2.2" fill="#D98A5E" opacity="0.7"/><circle cx="94" cy="34" r="2.2" fill="#D98A5E" opacity="0.7"/><circle cx="94" cy="94" r="2.2" fill="#D98A5E" opacity="0.7"/></g></defs><defs><linearGradient id="bg-sindhi-ajrak" x1="0" y1="0" x2="1" y2="1"><stop offset="0%" stop-color="#12233F"/><stop offset="55%" stop-color="#24406E"/><stop offset="100%" stop-color="#12233F"/></linearGradient><radialGradient id="gl-sindhi-ajrak" cx="50%" cy="34%" r="62%"><stop offset="0%" stop-color="#FFFFFF" stop-opacity="0.16"/><stop offset="100%" stop-color="#FFFFFF" stop-opacity="0"/></radialGradient><linearGradient id="sh-sindhi-ajrak" x1="0" y1="0" x2="1" y2="1"><stop offset="0%" stop-color="#FFFFFF" stop-opacity="0.09"/><stop offset="45%" stop-color="#FFFFFF" stop-opacity="0"/></linearGradient></defs><rect x="0" y="0" width="600" height="800" fill="url(#bg-sindhi-ajrak)"/><rect x="0" y="0" width="600" height="800" fill="url(#gl-sindhi-ajrak)"/><rect x="0" y="0" width="600" height="800" fill="url(#sh-sindhi-ajrak)"/><g opacity="0.62"><use href="#mo" xlink:href="#mo" transform="translate(20 40) scale(0.31)"/><use href="#mo" xlink:href="#mo" transform="translate(160 40) scale(0.31)"/><use href="#mo" xlink:href="#mo" transform="translate(300 40) scale(0.31)"/><use href="#mo" xlink:href="#mo" transform="translate(440 40) scale(0.31)"/><use href="#mo" xlink:href="#mo" transform="translate(580 40) scale(0.31)"/><use href="#mo" xlink:href="#mo" transform="translate(90 146) scale(0.31)"/><use href="#mo" xlink:href="#mo" transform="translate(230 146) scale(0.31)"/><use href="#mo" xlink:href="#mo" transform="translate(370 146) scale(0.31)"/><use href="#mo" xlink:href="#mo" transform="translate(510 146) scale(0.31)"/><use href="#mo" xlink:href="#mo" transform="translate(650 146) scale(0.31)"/><use href="#mo" xlink:href="#mo" transform="translate(20 252) scale(0.31)"/><use href="#mo" xlink:href="#mo" transform="translate(160 252) scale(0.31)"/><use href="#mo" xlink:href="#mo" transform="translate(300 252) scale(0.31)"/><use href="#mo" xlink:href="#mo" transform="translate(440 252) scale(0.31)"/><use href="#mo" xlink:href="#mo" transform="translate(580 252) scale(0.31)"/><use href="#mo" xlink:href="#mo" transform="translate(90 358) scale(0.31)"/><use href="#mo" xlink:href="#mo" transform="translate(230 358) scale(0.31)"/><use href="#mo" xlink:href="#mo" transform="translate(370 358) scale(0.31)"/><use href="#mo" xlink:href="#mo" transform="translate(510 358) scale(0.31)"/><use href="#mo" xlink:href="#mo" transform="translate(650 358) scale(0.31)"/><use href="#mo" xlink:href="#mo" transform="translate(20 464) scale(0.31)"/><use href="#mo" xlink:href="#mo" transform="translate(160 464) scale(0.31)"/><use href="#mo" xlink:href="#mo" transform="translate(300 464) scale(0.31)"/><use href="#mo" xlink:href="#mo" transform="translate(440 464) scale(0.31)"/><use href="#mo" xlink:href="#mo" transform="translate(580 464) scale(0.31)"/><use href="#mo" xlink:href="#mo" transform="translate(90 570) scale(0.31)"/><use href="#mo" xlink:href="#mo" transform="translate(230 570) scale(0.31)"/><use href="#mo" xlink:href="#mo" transform="translate(370 570) scale(0.31)"/><use href="#mo" xlink:href="#mo" transform="translate(510 570) scale(0.31)"/><use href="#mo" xlink:href="#mo" transform="translate(650 570) scale(0.31)"/><use href="#mo" xlink:href="#mo" transform="translate(20 676) scale(0.31)"/><use href="#mo" xlink:href="#mo" transform="translate(160 676) scale(0.31)"/><use href="#mo" xlink:href="#mo" transform="translate(300 676) scale(0.31)"/><use href="#mo" xlink:href="#mo" transform="translate(440 676) scale(0.31)"/><use href="#mo" xlink:href="#mo" transform="translate(580 676) scale(0.31)"/><use href="#mo" xlink:href="#mo" transform="translate(90 782) scale(0.31)"/><use href="#mo" xlink:href="#mo" transform="translate(230 782) scale(0.31)"/><use href="#mo" xlink:href="#mo" transform="translate(370 782) scale(0.31)"/><use href="#mo" xlink:href="#mo" transform="translate(510 782) scale(0.31)"/><use href="#mo" xlink:href="#mo" transform="translate(650 782) scale(0.31)"/></g><rect x="76" y="244" width="448" height="330" fill="#2E3D56" stroke="#D98A5E" stroke-width="1.6" opacity="0.97"/><rect x="88" y="256" width="424" height="306" fill="none" stroke="#D98A5E" stroke-width="0.8" opacity="0.35"/><text x="300" y="316" text-anchor="middle" font-family="Georgia, 'Times New Roman', serif" font-size="16" letter-spacing="6.5" fill="#D98A5E" opacity="0.72">SHADI NIMANTRAN</text><text x="300" y="392" text-anchor="middle" font-family="Constantia, 'Palatino Linotype', Georgia, serif" font-size="46" font-style="italic" fill="#F4D8C6">Sindhi Ajrak</text><line x1="230" y1="432" x2="276" y2="432" stroke="#D98A5E" stroke-width="1" opacity="0.5"/><circle cx="300" cy="432" r="2.4" fill="#D98A5E" opacity="0.65"/><line x1="324" y1="432" x2="370" y2="432" stroke="#D98A5E" stroke-width="1" opacity="0.5"/><text x="300" y="478" text-anchor="middle" font-family="Georgia, 'Times New Roman', serif" font-size="18" fill="#F4D8C6" opacity="0.68">Groom &amp; Bride</text><text x="300" y="538" text-anchor="middle" font-family="Georgia, 'Times New Roman', serif" font-size="14" letter-spacing="4" fill="#F4D8C6" opacity="0.6">SAVE THE DATE</text></svg>