<svg xmlns="http://www.w3.org/2000/svg" viewBox="0 0 600 800" width="600" height="800" role="img" aria-label="Twin Blessing invitation template preview"><defs><linearGradient id="bg-twin-blessing" x1="0" y1="0" x2="1" y2="1"><stop offset="0%" stop-color="#F6F4F8"/><stop offset="55%" stop-color="#E2DEE8"/><stop offset="100%" stop-color="#F6F4F8"/></linearGradient><radialGradient id="glow-twin-blessing" cx="50%" cy="34%" r="62%"><stop offset="0%" stop-color="#FFFFFF" stop-opacity="0.42"/><stop offset="100%" stop-color="#FFFFFF" stop-opacity="0"/></radialGradient><linearGradient id="sheen-twin-blessing" x1="0" y1="0" x2="1" y2="1"><stop offset="0%" stop-color="#FFFFFF" stop-opacity="0.20"/><stop offset="45%" stop-color="#FFFFFF" stop-opacity="0"/></linearGradient></defs><rect width="600" height="800" fill="url(#bg-twin-blessing)"/><rect width="600" height="800" fill="url(#glow-twin-blessing)"/><rect width="600" height="800" fill="url(#sheen-twin-blessing)"/><g transform="translate(44 44) scale(1 1)" fill="none" stroke="#3A344E" stroke-width="1.6" opacity="0.42" stroke-linecap="round"><path d="M 0 46 V 8 Q 0 0 8 0 H 46"/><path d="M 14 40 V 20 Q 14 14 20 14 H 40"/><circle cx="9" cy="9" r="2.6" fill="#3A344E" stroke="none" opacity="0.8"/></g><g transform="translate(556 44) scale(-1 1)" fill="none" stroke="#3A344E" stroke-width="1.6" opacity="0.42" stroke-linecap="round"><path d="M 0 46 V 8 Q 0 0 8 0 H 46"/><path d="M 14 40 V 20 Q 14 14 20 14 H 40"/><circle cx="9" cy="9" r="2.6" fill="#3A344E" stroke="none" opacity="0.8"/></g><g transform="translate(44 756) scale(1 -1)" fill="none" stroke="#3A344E" stroke-width="1.6" opacity="0.42" stroke-linecap="round"><path d="M 0 46 V 8 Q 0 0 8 0 H 46"/><path d="M 14 40 V 20 Q 14 14 20 14 H 40"/><circle cx="9" cy="9" r="2.6" fill="#3A344E" stroke="none" opacity="0.8"/></g><g transform="translate(556 756) scale(-1 -1)" fill="none" stroke="#3A344E" stroke-width="1.6" opacity="0.42" stroke-linecap="round"><path d="M 0 46 V 8 Q 0 0 8 0 H 46"/><path d="M 14 40 V 20 Q 14 14 20 14 H 40"/><circle cx="9" cy="9" r="2.6" fill="#3A344E" stroke="none" opacity="0.8"/></g><rect x="34" y="34" width="532" height="732" fill="none" stroke="#3A344E" stroke-width="1.1" opacity="0.30" rx="6"/><rect x="44" y="44" width="512" height="712" fill="none" stroke="#3A344E" stroke-width="0.7" opacity="0.20" rx="4"/><g><path d="M 300 168 l 7 19 20 7 -20 7 -7 19 -7 -19 -20 -7 20 -7 z" fill="#C9B45E" opacity="0.9"/><g fill="#3A344E" opacity="0.9"><path d="M 196 262 a 40 40 0 1 1 -2 0 z M 196 264 c -16 -16 -16 -36 -2 -50 l 24 24 z"/><path d="M 404 262 a 40 40 0 1 0 2 0 z M 404 264 c 16 -16 16 -36 2 -50 l -24 24 z"/></g><circle cx="196" cy="282" r="2.4" fill="#FFF" opacity="0.9"/><circle cx="404" cy="282" r="2.4" fill="#FFF" opacity="0.9"/><path d="M 196 300 l 8 26 h -16 z" fill="#3A344E" opacity="0.7"/><path d="M 404 300 l -8 26 h 16 z" fill="#3A344E" opacity="0.7"/><path d="M 300 316 c -12 0 -12 16 0 16 c 12 0 12 -16 0 -16 z" fill="#7A6AA0" opacity="0.8"/><path d="M 232 344 q 68 30 136 0" fill="none" stroke="#3A344E" stroke-width="1.2" opacity="0.45"/></g><text x="300.0" y="470" text-anchor="middle" font-family="Georgia, 'Times New Roman', serif" font-size="21" letter-spacing="7.5" fill="#3A344E" opacity="0.72">BABY SHOWER</text><line x1="216.0" y1="494" x2="276.0" y2="494" stroke="#3A344E" stroke-width="1" opacity="0.5"/><circle cx="300.0" cy="494" r="3.6" fill="#3A344E" opacity="0.65"/><line x1="324.0" y1="494" x2="384.0" y2="494" stroke="#3A344E" stroke-width="1" opacity="0.5"/><text x="300.0" y="580" text-anchor="middle" font-family="Georgia, serif" font-size="56" font-style="italic" fill="#3A344E">Twin Blessing</text><text x="300.0" y="636" text-anchor="middle" font-family="Georgia, serif" font-size="20" fill="#3A344E" opacity="0.68">Double the love, twice the joy</text><g opacity="0.55"><line x1="230.0" y1="684" x2="370.0" y2="684" stroke="#3A344E" stroke-width="0.9"/></g><text x="300.0" y="722" text-anchor="middle" font-family="Georgia, serif" font-size="18" letter-spacing="4" fill="#3A344E" opacity="0.6">SAVE THE DATE</text></svg>