<svg xmlns="http://www.w3.org/2000/svg" viewBox="0 0 640 440" width="640" height="440" role="img" aria-label="Engagement invitation category"><defs><linearGradient id="cg-engagement" x1="0" y1="0" x2="1" y2="1"><stop offset="0%" stop-color="#3B2557"/><stop offset="100%" stop-color="#6B4694"/></linearGradient><radialGradient id="cr-engagement" cx="72%" cy="22%" r="70%"><stop offset="0%" stop-color="#FFFFFF" stop-opacity="0.34"/><stop offset="100%" stop-color="#FFFFFF" stop-opacity="0"/></radialGradient></defs><rect width="640" height="440" fill="url(#cg-engagement)"/><rect width="640" height="440" fill="url(#cr-engagement)"/><g opacity="0.85"><g fill="none" stroke="#EBD9FB" opacity="0.85"><circle cx="287.4" cy="184.79999999999998" r="59.5" stroke-width="10.6"/><circle cx="352.6" cy="184.79999999999998" r="59.5" stroke-width="10.6"/></g><path d="M 352.6 106.1 l 13.4 19.2 l -13.4 19.2 l -13.4 -19.2 z" fill="#EBD9FB" opacity="0.85"/></g><g opacity="0.16"><g fill="none" stroke="#EBD9FB" opacity="1.00"><circle cx="24.7" cy="396.0" r="48.4" stroke-width="8.6"/><circle cx="77.7" cy="396.0" r="48.4" stroke-width="8.6"/></g><path d="M 77.7 332.0 l 10.9 15.6 l -10.9 15.6 l -10.9 -15.6 z" fill="#EBD9FB" opacity="1.00"/></g><g opacity="0.13"><g fill="none" stroke="#EBD9FB" opacity="1.00"><circle cx="580.5" cy="52.8" r="38.4" stroke-width="6.8"/><circle cx="622.7" cy="52.8" r="38.4" stroke-width="6.8"/></g><path d="M 622.7 2.0 l 8.7 12.4 l -8.7 12.4 l -8.7 -12.4 z" fill="#EBD9FB" opacity="1.00"/></g><line x1="264.0" y1="316.8" x2="376.0" y2="316.8" stroke="#EBD9FB" stroke-width="1.2" opacity="0.55"/><text x="320.0" y="365.2" text-anchor="middle" font-family="Georgia, serif" font-size="38" font-style="italic" fill="#EBD9FB">Engagement</text></svg>