<svg xmlns="http://www.w3.org/2000/svg" viewBox="0 0 640 440" width="640" height="440" role="img" aria-label="Festival invitation category"><defs><linearGradient id="cg-festival" x1="0" y1="0" x2="1" y2="1"><stop offset="0%" stop-color="#9A4310"/><stop offset="100%" stop-color="#E88A2E"/></linearGradient><radialGradient id="cr-festival" cx="72%" cy="22%" r="70%"><stop offset="0%" stop-color="#FFFFFF" stop-opacity="0.34"/><stop offset="100%" stop-color="#FFFFFF" stop-opacity="0"/></radialGradient></defs><rect width="640" height="440" fill="url(#cg-festival)"/><rect width="640" height="440" fill="url(#cr-festival)"/><g opacity="0.85"><g opacity="0.51"><path d="M 194.8 223.1 q 36.9 36.9 73.8 0 z" fill="#FFF1DC"/><path d="M 231.7 219.6 q 17.9 -20.2 0 -45.2 q -17.9 25.0 0 45.2 z" fill="#FFF1DC" opacity="0.75"/><ellipse cx="231.7" cy="198.1" rx="26.2" ry="35.7" fill="#FFF1DC" opacity="0.16"/></g><g opacity="0.51"><path d="M 371.4 223.1 q 36.9 36.9 73.8 0 z" fill="#FFF1DC"/><path d="M 408.3 219.6 q 17.9 -20.2 0 -45.2 q -17.9 25.0 0 45.2 z" fill="#FFF1DC" opacity="0.75"/><ellipse cx="408.3" cy="198.1" rx="26.2" ry="35.7" fill="#FFF1DC" opacity="0.16"/></g><g opacity="0.85"><path d="M 260.5 200.2 q 59.5 59.5 119.0 0 z" fill="#FFF1DC"/><path d="M 320.0 194.4 q 28.8 -32.6 0 -73.0 q -28.8 40.3 0 73.0 z" fill="#FFF1DC" opacity="0.75"/><ellipse cx="320.0" cy="159.8" rx="42.2" ry="57.6" fill="#FFF1DC" opacity="0.16"/></g><g fill="none" stroke="#FFF1DC" stroke-width="1.4" opacity="0.21"><circle cx="320.0" cy="40.79999999999998" r="52.8"/><circle cx="320.0" cy="40.79999999999998" r="41.2"/><circle cx="320.0" cy="40.79999999999998" r="29.6"/><circle cx="320.0" cy="40.79999999999998" r="18.0"/></g><g stroke="#FFF1DC" stroke-width="1" opacity="0.17"><line x1="339.0" y1="40.8" x2="372.8" y2="40.8"/><line x1="337.6" y1="48.1" x2="368.8" y2="61.0"/><line x1="333.4" y1="54.2" x2="357.3" y2="78.1"/><line x1="327.3" y1="58.4" x2="340.2" y2="89.6"/><line x1="320.0" y1="59.8" x2="320.0" y2="93.6"/><line x1="312.7" y1="58.4" x2="299.8" y2="89.6"/><line x1="306.6" y1="54.2" x2="282.7" y2="78.1"/><line x1="302.4" y1="48.1" x2="271.2" y2="61.0"/><line x1="301.0" y1="40.8" x2="267.2" y2="40.8"/><line x1="302.4" y1="33.5" x2="271.2" y2="20.6"/><line x1="306.6" y1="27.4" x2="282.7" y2="3.5"/><line x1="312.7" y1="23.2" x2="299.8" y2="-8.0"/><line x1="320.0" y1="21.8" x2="320.0" y2="-12.0"/><line x1="327.3" y1="23.2" x2="340.2" y2="-8.0"/><line x1="333.4" y1="27.4" x2="357.3" y2="3.5"/><line x1="337.6" y1="33.5" x2="368.8" y2="20.6"/></g><g fill="#FFF1DC" opacity="0.19"><path d="M 320.0 11.2 q 9.0 -13.7 0 -23.2 q -9.0 9.5 0 23.2 z" transform="rotate(0.0 320.0 40.79999999999998)"/><path d="M 320.0 11.2 q 9.0 -13.7 0 -23.2 q -9.0 9.5 0 23.2 z" transform="rotate(30.0 320.0 40.79999999999998)"/><path d="M 320.0 11.2 q 9.0 -13.7 0 -23.2 q -9.0 9.5 0 23.2 z" transform="rotate(60.0 320.0 40.79999999999998)"/><path d="M 320.0 11.2 q 9.0 -13.7 0 -23.2 q -9.0 9.5 0 23.2 z" transform="rotate(90.0 320.0 40.79999999999998)"/><path d="M 320.0 11.2 q 9.0 -13.7 0 -23.2 q -9.0 9.5 0 23.2 z" transform="rotate(120.0 320.0 40.79999999999998)"/><path d="M 320.0 11.2 q 9.0 -13.7 0 -23.2 q -9.0 9.5 0 23.2 z" transform="rotate(150.0 320.0 40.79999999999998)"/><path d="M 320.0 11.2 q 9.0 -13.7 0 -23.2 q -9.0 9.5 0 23.2 z" transform="rotate(180.0 320.0 40.79999999999998)"/><path d="M 320.0 11.2 q 9.0 -13.7 0 -23.2 q -9.0 9.5 0 23.2 z" transform="rotate(210.0 320.0 40.79999999999998)"/><path d="M 320.0 11.2 q 9.0 -13.7 0 -23.2 q -9.0 9.5 0 23.2 z" transform="rotate(240.0 320.0 40.79999999999998)"/><path d="M 320.0 11.2 q 9.0 -13.7 0 -23.2 q -9.0 9.5 0 23.2 z" transform="rotate(270.0 320.0 40.79999999999998)"/><path d="M 320.0 11.2 q 9.0 -13.7 0 -23.2 q -9.0 9.5 0 23.2 z" transform="rotate(300.0 320.0 40.79999999999998)"/><path d="M 320.0 11.2 q 9.0 -13.7 0 -23.2 q -9.0 9.5 0 23.2 z" transform="rotate(330.0 320.0 40.79999999999998)"/></g><circle cx="320.0" cy="40.79999999999998" r="6.3" fill="#FFF1DC" opacity="0.38"/></g><g opacity="0.16"><g opacity="0.60"><path d="M -50.5 427.1 q 30.0 30.0 60.0 0 z" fill="#FFF1DC"/><path d="M -20.6 424.2 q 14.5 -16.4 0 -36.8 q -14.5 20.3 0 36.8 z" fill="#FFF1DC" opacity="0.75"/><ellipse cx="-20.6" cy="406.8" rx="21.3" ry="29.0" fill="#FFF1DC" opacity="0.16"/></g><g opacity="0.60"><path d="M 93.0 427.1 q 30.0 30.0 60.0 0 z" fill="#FFF1DC"/><path d="M 123.0 424.2 q 14.5 -16.4 0 -36.8 q -14.5 20.3 0 36.8 z" fill="#FFF1DC" opacity="0.75"/><ellipse cx="123.0" cy="406.8" rx="21.3" ry="29.0" fill="#FFF1DC" opacity="0.16"/></g><g opacity="1.00"><path d="M 2.8 408.5 q 48.4 48.4 96.7 0 z" fill="#FFF1DC"/><path d="M 51.2 403.8 q 23.4 -26.5 0 -59.3 q -23.4 32.8 0 59.3 z" fill="#FFF1DC" opacity="0.75"/><ellipse cx="51.2" cy="375.7" rx="34.3" ry="46.8" fill="#FFF1DC" opacity="0.16"/></g><g fill="none" stroke="#FFF1DC" stroke-width="1.4" opacity="0.25"><circle cx="51.2" cy="279.0" r="42.9"/><circle cx="51.2" cy="279.0" r="33.5"/><circle cx="51.2" cy="279.0" r="24.0"/><circle cx="51.2" cy="279.0" r="14.6"/></g><g stroke="#FFF1DC" stroke-width="1" opacity="0.20"><line x1="66.6" y1="279.0" x2="94.1" y2="279.0"/><line x1="65.5" y1="284.9" x2="90.8" y2="295.4"/><line x1="62.1" y1="289.9" x2="81.5" y2="309.3"/><line x1="57.1" y1="293.3" x2="67.6" y2="318.6"/><line x1="51.2" y1="294.4" x2="51.2" y2="321.9"/><line x1="45.3" y1="293.3" x2="34.8" y2="318.6"/><line x1="40.3" y1="289.9" x2="20.9" y2="309.3"/><line x1="36.9" y1="284.9" x2="11.6" y2="295.4"/><line x1="35.8" y1="279.0" x2="8.3" y2="279.0"/><line x1="36.9" y1="273.1" x2="11.6" y2="262.6"/><line x1="40.3" y1="268.1" x2="20.9" y2="248.7"/><line x1="45.3" y1="264.7" x2="34.8" y2="239.4"/><line x1="51.2" y1="263.6" x2="51.2" y2="236.1"/><line x1="57.1" y1="264.7" x2="67.6" y2="239.4"/><line x1="62.1" y1="268.1" x2="81.5" y2="248.7"/><line x1="65.5" y1="273.1" x2="90.8" y2="262.6"/></g><g fill="#FFF1DC" opacity="0.23"><path d="M 51.2 255.0 q 7.3 -11.2 0 -18.9 q -7.3 7.7 0 18.9 z" transform="rotate(0.0 51.2 279.0)"/><path d="M 51.2 255.0 q 7.3 -11.2 0 -18.9 q -7.3 7.7 0 18.9 z" transform="rotate(30.0 51.2 279.0)"/><path d="M 51.2 255.0 q 7.3 -11.2 0 -18.9 q -7.3 7.7 0 18.9 z" transform="rotate(60.0 51.2 279.0)"/><path d="M 51.2 255.0 q 7.3 -11.2 0 -18.9 q -7.3 7.7 0 18.9 z" transform="rotate(90.0 51.2 279.0)"/><path d="M 51.2 255.0 q 7.3 -11.2 0 -18.9 q -7.3 7.7 0 18.9 z" transform="rotate(120.0 51.2 279.0)"/><path d="M 51.2 255.0 q 7.3 -11.2 0 -18.9 q -7.3 7.7 0 18.9 z" transform="rotate(150.0 51.2 279.0)"/><path d="M 51.2 255.0 q 7.3 -11.2 0 -18.9 q -7.3 7.7 0 18.9 z" transform="rotate(180.0 51.2 279.0)"/><path d="M 51.2 255.0 q 7.3 -11.2 0 -18.9 q -7.3 7.7 0 18.9 z" transform="rotate(210.0 51.2 279.0)"/><path d="M 51.2 255.0 q 7.3 -11.2 0 -18.9 q -7.3 7.7 0 18.9 z" transform="rotate(240.0 51.2 279.0)"/><path d="M 51.2 255.0 q 7.3 -11.2 0 -18.9 q -7.3 7.7 0 18.9 z" transform="rotate(270.0 51.2 279.0)"/><path d="M 51.2 255.0 q 7.3 -11.2 0 -18.9 q -7.3 7.7 0 18.9 z" transform="rotate(300.0 51.2 279.0)"/><path d="M 51.2 255.0 q 7.3 -11.2 0 -18.9 q -7.3 7.7 0 18.9 z" transform="rotate(330.0 51.2 279.0)"/></g><circle cx="51.2" cy="279.0" r="5.1" fill="#FFF1DC" opacity="0.45"/></g><g opacity="0.13"><g opacity="0.60"><path d="M 520.7 77.6 q 23.8 23.8 47.7 0 z" fill="#FFF1DC"/><path d="M 544.6 75.2 q 11.5 -13.1 0 -29.2 q -11.5 16.1 0 29.2 z" fill="#FFF1DC" opacity="0.75"/><ellipse cx="544.6" cy="61.4" rx="16.9" ry="23.1" fill="#FFF1DC" opacity="0.16"/></g><g opacity="0.60"><path d="M 634.8 77.6 q 23.8 23.8 47.7 0 z" fill="#FFF1DC"/><path d="M 658.6 75.2 q 11.5 -13.1 0 -29.2 q -11.5 16.1 0 29.2 z" fill="#FFF1DC" opacity="0.75"/><ellipse cx="658.6" cy="61.4" rx="16.9" ry="23.1" fill="#FFF1DC" opacity="0.16"/></g><g opacity="1.00"><path d="M 563.2 62.7 q 38.4 38.4 76.9 0 z" fill="#FFF1DC"/><path d="M 601.6 59.0 q 18.6 -21.1 0 -47.1 q -18.6 26.0 0 47.1 z" fill="#FFF1DC" opacity="0.75"/><ellipse cx="601.6" cy="36.7" rx="27.3" ry="37.2" fill="#FFF1DC" opacity="0.16"/></g><g fill="none" stroke="#FFF1DC" stroke-width="1.4" opacity="0.25"><circle cx="601.5999999999999" cy="-40.2" r="34.1"/><circle cx="601.5999999999999" cy="-40.2" r="26.6"/><circle cx="601.5999999999999" cy="-40.2" r="19.1"/><circle cx="601.5999999999999" cy="-40.2" r="11.6"/></g><g stroke="#FFF1DC" stroke-width="1" opacity="0.20"><line x1="613.9" y1="-40.2" x2="635.7" y2="-40.2"/><line x1="612.9" y1="-35.5" x2="633.1" y2="-27.2"/><line x1="610.3" y1="-31.5" x2="625.7" y2="-16.1"/><line x1="606.3" y1="-28.9" x2="614.6" y2="-8.7"/><line x1="601.6" y1="-27.9" x2="601.6" y2="-6.1"/><line x1="596.9" y1="-28.9" x2="588.6" y2="-8.7"/><line x1="592.9" y1="-31.5" x2="577.5" y2="-16.1"/><line x1="590.3" y1="-35.5" x2="570.1" y2="-27.2"/><line x1="589.3" y1="-40.2" x2="567.5" y2="-40.2"/><line x1="590.3" y1="-44.9" x2="570.1" y2="-53.2"/><line x1="592.9" y1="-48.9" x2="577.5" y2="-64.3"/><line x1="596.9" y1="-51.5" x2="588.6" y2="-71.7"/><line x1="601.6" y1="-52.5" x2="601.6" y2="-74.3"/><line x1="606.3" y1="-51.5" x2="614.6" y2="-71.7"/><line x1="610.3" y1="-48.9" x2="625.7" y2="-64.3"/><line x1="612.9" y1="-44.9" x2="633.1" y2="-53.2"/></g><g fill="#FFF1DC" opacity="0.23"><path d="M 601.5999999999999 -59.3 q 5.8 -8.9 0 -15.0 q -5.8 6.1 0 15.0 z" transform="rotate(0.0 601.5999999999999 -40.2)"/><path d="M 601.5999999999999 -59.3 q 5.8 -8.9 0 -15.0 q -5.8 6.1 0 15.0 z" transform="rotate(30.0 601.5999999999999 -40.2)"/><path d="M 601.5999999999999 -59.3 q 5.8 -8.9 0 -15.0 q -5.8 6.1 0 15.0 z" transform="rotate(60.0 601.5999999999999 -40.2)"/><path d="M 601.5999999999999 -59.3 q 5.8 -8.9 0 -15.0 q -5.8 6.1 0 15.0 z" transform="rotate(90.0 601.5999999999999 -40.2)"/><path d="M 601.5999999999999 -59.3 q 5.8 -8.9 0 -15.0 q -5.8 6.1 0 15.0 z" transform="rotate(120.0 601.5999999999999 -40.2)"/><path d="M 601.5999999999999 -59.3 q 5.8 -8.9 0 -15.0 q -5.8 6.1 0 15.0 z" transform="rotate(150.0 601.5999999999999 -40.2)"/><path d="M 601.5999999999999 -59.3 q 5.8 -8.9 0 -15.0 q -5.8 6.1 0 15.0 z" transform="rotate(180.0 601.5999999999999 -40.2)"/><path d="M 601.5999999999999 -59.3 q 5.8 -8.9 0 -15.0 q -5.8 6.1 0 15.0 z" transform="rotate(210.0 601.5999999999999 -40.2)"/><path d="M 601.5999999999999 -59.3 q 5.8 -8.9 0 -15.0 q -5.8 6.1 0 15.0 z" transform="rotate(240.0 601.5999999999999 -40.2)"/><path d="M 601.5999999999999 -59.3 q 5.8 -8.9 0 -15.0 q -5.8 6.1 0 15.0 z" transform="rotate(270.0 601.5999999999999 -40.2)"/><path d="M 601.5999999999999 -59.3 q 5.8 -8.9 0 -15.0 q -5.8 6.1 0 15.0 z" transform="rotate(300.0 601.5999999999999 -40.2)"/><path d="M 601.5999999999999 -59.3 q 5.8 -8.9 0 -15.0 q -5.8 6.1 0 15.0 z" transform="rotate(330.0 601.5999999999999 -40.2)"/></g><circle cx="601.5999999999999" cy="-40.2" r="4.1" fill="#FFF1DC" opacity="0.45"/></g><line x1="264.0" y1="316.8" x2="376.0" y2="316.8" stroke="#FFF1DC" stroke-width="1.2" opacity="0.55"/><text x="320.0" y="365.2" text-anchor="middle" font-family="Georgia, serif" font-size="38" font-style="italic" fill="#FFF1DC">Festival</text></svg>